<svg xmlns="http://www.w3.org/2000/svg" width="368" height="368" viewBox="-927 5600.881 368 368"><g data-name="CompositeLayer"><path d="M-882 5600.881h278a45 45 0 0 1 45 45v278a45 45 0 0 1-45 45h-278a45 45 0 0 1-45-45v-278a45 45 0 0 1 45-45z" fill="#fff" fill-rule="evenodd" data-name="Rectangle 4"/><g data-name="Group 8"><path d="M-882 5645.881h11v11h-11v-11z" fill="#6837ef" fill-rule="evenodd" data-name="Rectangle 5"/><path d="M-882 5656.881h11v10h-11v-10z" fill="#6837ef" fill-rule="evenodd" data-name="Rectangle 6"/><path d="M-882 5666.881h11v12h-11v-12z" fill="#6837ef" fill-rule="evenodd" data-name="Rectangle 7"/><path d="M-882 5678.881h11v12h-11v-12z" fill="#6837ef" fill-rule="evenodd" data-name="Rectangle 8"/><path d="M-882 5690.881h11v10h-11v-10z" fill="#6837ef" fill-rule="evenodd" data-name="Rectangle 9"/><path d="M-882 5700.881h11v11h-11v-11z" fill="#6837ef" fill-rule="evenodd" data-name="Rectangle 10"/><path d="M-882 5711.881h11v12h-11v-12z" fill="#6837ef" fill-rule="evenodd" data-name="Rectangle 11"/><path d="M-882 5733.881h11v12h-11v-12z" fill="#6837ef" fill-rule="evenodd" data-name="Rectangle 12"/><path d="M-882 5745.881h11v11h-11v-11z" fill="#6837ef" fill-rule="evenodd" data-name="Rectangle 13"/><path d="M-882 5756.881h11v11h-11v-11z" fill="#6837ef" fill-rule="evenodd" data-name="Rectangle 14"/><path d="M-882 5778.881h11v12h-11v-12z" fill="#6837ef" fill-rule="evenodd" data-name="Rectangle 15"/><path d="M-882 5790.881h11v11h-11v-11z" fill="#6837ef" fill-rule="evenodd" data-name="Rectangle 16"/><path d="M-882 5812.881h11v11h-11v-11z" fill="#6837ef" fill-rule="evenodd" data-name="Rectangle 17"/><path d="M-882 5845.881h11v12h-11v-12z" fill="#6837ef" fill-rule="evenodd" data-name="Rectangle 18"/><path d="M-882 5857.881h11v11h-11v-11z" fill="#6837ef" fill-rule="evenodd" data-name="Rectangle 19"/><path d="M-882 5868.881h11v10h-11v-10z" fill="#6837ef" fill-rule="evenodd" data-name="Rectangle 20"/><path d="M-882 5878.881h11v12h-11v-12z" fill="#6837ef" fill-rule="evenodd" data-name="Rectangle 21"/><path d="M-882 5890.881h11v12h-11v-12z" fill="#6837ef" fill-rule="evenodd" data-name="Rectangle 22"/><path d="M-882 5902.881h11v10h-11v-10z" fill="#6837ef" fill-rule="evenodd" data-name="Rectangle 23"/><path d="M-882 5912.881h11v11h-11v-11z" fill="#6837ef" fill-rule="evenodd" data-name="Rectangle 24"/><path d="M-871 5645.881h10v11h-10v-11z" fill="#6837ef" fill-rule="evenodd" data-name="Rectangle 25"/><path d="M-871 5711.881h10v12h-10v-12z" fill="#6837ef" fill-rule="evenodd" data-name="Rectangle 26"/><path d="M-871 5733.881h10v12h-10v-12z" fill="#6837ef" fill-rule="evenodd" data-name="Rectangle 27"/><path d="M-871 5756.881h10v11h-10v-11z" fill="#6837ef" fill-rule="evenodd" data-name="Rectangle 28"/><path d="M-871 5778.881h10v12h-10v-12z" fill="#6837ef" fill-rule="evenodd" data-name="Rectangle 29"/><path d="M-871 5790.881h10v11h-10v-11z" fill="#6837ef" fill-rule="evenodd" data-name="Rectangle 30"/><path d="M-871 5801.881h10v11h-10v-11z" fill="#6837ef" fill-rule="evenodd" data-name="Rectangle 31"/><path d="M-871 5845.881h10v12h-10v-12z" fill="#6837ef" fill-rule="evenodd" data-name="Rectangle 32"/><path d="M-871 5912.881h10v11h-10v-11z" fill="#6837ef" fill-rule="evenodd" data-name="Rectangle 33"/><path d="M-861 5645.881h12v11h-12v-11z" fill="#6837ef" fill-rule="evenodd" data-name="Rectangle 34"/><path d="M-861 5666.881h12v12h-12v-12z" fill="#6837ef" fill-rule="evenodd" data-name="Rectangle 35"/><path d="M-861 5678.881h12v12h-12v-12z" fill="#6837ef" fill-rule="evenodd" data-name="Rectangle 36"/><path d="M-861 5690.881h12v10h-12v-10z" fill="#6837ef" fill-rule="evenodd" data-name="Rectangle 37"/><path d="M-861 5711.881h12v12h-12v-12z" fill="#6837ef" fill-rule="evenodd" data-name="Rectangle 38"/><path d="M-861 5756.881h12v11h-12v-11z" fill="#6837ef" fill-rule="evenodd" data-name="Rectangle 39"/><path d="M-861 5778.881h12v12h-12v-12z" fill="#6837ef" fill-rule="evenodd" data-name="Rectangle 40"/><path d="M-861 5823.881h12v12h-12v-12z" fill="#6837ef" fill-rule="evenodd" data-name="Rectangle 41"/><path d="M-861 5845.881h12v12h-12v-12z" fill="#6837ef" fill-rule="evenodd" data-name="Rectangle 42"/><path d="M-861 5868.881h12v10h-12v-10z" fill="#6837ef" fill-rule="evenodd" data-name="Rectangle 43"/><path d="M-861 5878.881h12v12h-12v-12z" fill="#6837ef" fill-rule="evenodd" data-name="Rectangle 44"/><path d="M-861 5890.881h12v12h-12v-12z" fill="#6837ef" fill-rule="evenodd" data-name="Rectangle 45"/><path d="M-861 5912.881h12v11h-12v-11z" fill="#6837ef" fill-rule="evenodd" data-name="Rectangle 46"/><path d="M-849 5645.881h12v11h-12v-11z" fill="#6837ef" fill-rule="evenodd" data-name="Rectangle 47"/><path d="M-849 5666.881h12v12h-12v-12z" fill="#6837ef" fill-rule="evenodd" data-name="Rectangle 48"/><path d="M-849 5678.881h12v12h-12v-12z" fill="#6837ef" fill-rule="evenodd" data-name="Rectangle 49"/><path d="M-849 5690.881h12v10h-12v-10z" fill="#6837ef" fill-rule="evenodd" data-name="Rectangle 50"/><path d="M-849 5711.881h12v12h-12v-12z" fill="#6837ef" fill-rule="evenodd" data-name="Rectangle 51"/><path d="M-849 5733.881h12v12h-12v-12z" fill="#6837ef" fill-rule="evenodd" data-name="Rectangle 52"/><path d="M-849 5745.881h12v11h-12v-11z" fill="#6837ef" fill-rule="evenodd" data-name="Rectangle 53"/><path d="M-849 5790.881h12v11h-12v-11z" fill="#6837ef" fill-rule="evenodd" data-name="Rectangle 54"/><path d="M-849 5845.881h12v12h-12v-12z" fill="#6837ef" fill-rule="evenodd" data-name="Rectangle 55"/><path d="M-849 5868.881h12v10h-12v-10z" fill="#6837ef" fill-rule="evenodd" data-name="Rectangle 56"/><path d="M-849 5878.881h12v12h-12v-12z" fill="#6837ef" fill-rule="evenodd" data-name="Rectangle 57"/><path d="M-849 5890.881h12v12h-12v-12z" fill="#6837ef" fill-rule="evenodd" data-name="Rectangle 58"/><path d="M-849 5912.881h12v11h-12v-11z" fill="#6837ef" fill-rule="evenodd" data-name="Rectangle 59"/><path d="M-837 5645.881h10v11h-10v-11z" fill="#6837ef" fill-rule="evenodd" data-name="Rectangle 60"/><path d="M-837 5666.881h10v12h-10v-12z" fill="#6837ef" fill-rule="evenodd" data-name="Rectangle 61"/><path d="M-837 5678.881h10v12h-10v-12z" fill="#6837ef" fill-rule="evenodd" data-name="Rectangle 62"/><path d="M-837 5690.881h10v10h-10v-10z" fill="#6837ef" fill-rule="evenodd" data-name="Rectangle 63"/><path d="M-837 5711.881h10v12h-10v-12z" fill="#6837ef" fill-rule="evenodd" data-name="Rectangle 64"/><path d="M-837 5745.881h10v11h-10v-11z" fill="#6837ef" fill-rule="evenodd" data-name="Rectangle 65"/><path d="M-837 5778.881h10v12h-10v-12z" fill="#6837ef" fill-rule="evenodd" data-name="Rectangle 66"/><path d="M-837 5801.881h10v11h-10v-11z" fill="#6837ef" fill-rule="evenodd" data-name="Rectangle 67"/><path d="M-837 5845.881h10v12h-10v-12z" fill="#6837ef" fill-rule="evenodd" data-name="Rectangle 68"/><path d="M-837 5868.881h10v10h-10v-10z" fill="#6837ef" fill-rule="evenodd" data-name="Rectangle 69"/><path d="M-837 5878.881h10v12h-10v-12z" fill="#6837ef" fill-rule="evenodd" data-name="Rectangle 70"/><path d="M-837 5890.881h10v12h-10v-12z" fill="#6837ef" fill-rule="evenodd" data-name="Rectangle 71"/><path d="M-837 5912.881h10v11h-10v-11z" fill="#6837ef" fill-rule="evenodd" data-name="Rectangle 72"/><path d="M-827 5645.881h11v11h-11v-11z" fill="#6837ef" fill-rule="evenodd" data-name="Rectangle 73"/><path d="M-827 5711.881h11v12h-11v-12z" fill="#6837ef" fill-rule="evenodd" data-name="Rectangle 74"/><path d="M-827 5745.881h11v11h-11v-11z" fill="#6837ef" fill-rule="evenodd" data-name="Rectangle 75"/><path d="M-827 5756.881h11v11h-11v-11z" fill="#6837ef" fill-rule="evenodd" data-name="Rectangle 76"/><path d="M-827 5767.881h11v11h-11v-11z" fill="#6837ef" fill-rule="evenodd" data-name="Rectangle 77"/><path d="M-827 5778.881h11v12h-11v-12z" fill="#6837ef" fill-rule="evenodd" data-name="Rectangle 78"/><path d="M-827 5801.881h11v11h-11v-11z" fill="#6837ef" fill-rule="evenodd" data-name="Rectangle 79"/><path d="M-827 5823.881h11v12h-11v-12z" fill="#6837ef" fill-rule="evenodd" data-name="Rectangle 80"/><path d="M-827 5845.881h11v12h-11v-12z" fill="#6837ef" fill-rule="evenodd" data-name="Rectangle 81"/><path d="M-827 5912.881h11v11h-11v-11z" fill="#6837ef" fill-rule="evenodd" data-name="Rectangle 82"/><path d="M-816 5645.881h12v11h-12v-11z" fill="#6837ef" fill-rule="evenodd" data-name="Rectangle 83"/><path d="M-816 5656.881h12v10h-12v-10z" fill="#6837ef" fill-rule="evenodd" data-name="Rectangle 84"/><path d="M-816 5666.881h12v12h-12v-12z" fill="#6837ef" fill-rule="evenodd" data-name="Rectangle 85"/><path d="M-816 5678.881h12v12h-12v-12z" fill="#6837ef" fill-rule="evenodd" data-name="Rectangle 86"/><path d="M-816 5690.881h12v10h-12v-10z" fill="#6837ef" fill-rule="evenodd" data-name="Rectangle 87"/><path d="M-816 5700.881h12v11h-12v-11z" fill="#6837ef" fill-rule="evenodd" data-name="Rectangle 88"/><path d="M-816 5711.881h12v12h-12v-12z" fill="#6837ef" fill-rule="evenodd" data-name="Rectangle 89"/><path d="M-816 5733.881h12v12h-12v-12z" fill="#6837ef" fill-rule="evenodd" data-name="Rectangle 90"/><path d="M-816 5756.881h12v11h-12v-11z" fill="#6837ef" fill-rule="evenodd" data-name="Rectangle 91"/><path d="M-816 5778.881h12v12h-12v-12z" fill="#6837ef" fill-rule="evenodd" data-name="Rectangle 92"/><path d="M-816 5801.881h12v11h-12v-11z" fill="#6837ef" fill-rule="evenodd" data-name="Rectangle 93"/><path d="M-816 5823.881h12v12h-12v-12z" fill="#6837ef" fill-rule="evenodd" data-name="Rectangle 94"/><path d="M-816 5845.881h12v12h-12v-12z" fill="#6837ef" fill-rule="evenodd" data-name="Rectangle 95"/><path d="M-816 5857.881h12v11h-12v-11z" fill="#6837ef" fill-rule="evenodd" data-name="Rectangle 96"/><path d="M-816 5868.881h12v10h-12v-10z" fill="#6837ef" fill-rule="evenodd" data-name="Rectangle 97"/><path d="M-816 5878.881h12v12h-12v-12z" fill="#6837ef" fill-rule="evenodd" data-name="Rectangle 98"/><path d="M-816 5890.881h12v12h-12v-12z" fill="#6837ef" fill-rule="evenodd" data-name="Rectangle 99"/><path d="M-816 5902.881h12v10h-12v-10z" fill="#6837ef" fill-rule="evenodd" data-name="Rectangle 100"/><path d="M-816 5912.881h12v11h-12v-11z" fill="#6837ef" fill-rule="evenodd" data-name="Rectangle 101"/><path d="M-804 5733.881h10v12h-10v-12z" fill="#6837ef" fill-rule="evenodd" data-name="Rectangle 102"/><path d="M-804 5745.881h10v11h-10v-11z" fill="#6837ef" fill-rule="evenodd" data-name="Rectangle 103"/><path d="M-804 5756.881h10v11h-10v-11z" fill="#6837ef" fill-rule="evenodd" data-name="Rectangle 104"/><path d="M-804 5767.881h10v11h-10v-11z" fill="#6837ef" fill-rule="evenodd" data-name="Rectangle 105"/><path d="M-804 5778.881h10v12h-10v-12z" fill="#6837ef" fill-rule="evenodd" data-name="Rectangle 106"/><path d="M-804 5790.881h10v11h-10v-11z" fill="#6837ef" fill-rule="evenodd" data-name="Rectangle 107"/><path d="M-804 5812.881h10v11h-10v-11z" fill="#6837ef" fill-rule="evenodd" data-name="Rectangle 108"/><path d="M-804 5823.881h10v12h-10v-12z" fill="#6837ef" fill-rule="evenodd" data-name="Rectangle 109"/><path d="M-794 5656.881h12v10h-12v-10z" fill="#6837ef" fill-rule="evenodd" data-name="Rectangle 110"/><path d="M-794 5666.881h12v12h-12v-12z" fill="#6837ef" fill-rule="evenodd" data-name="Rectangle 111"/><path d="M-794 5690.881h12v10h-12v-10z" fill="#6837ef" fill-rule="evenodd" data-name="Rectangle 112"/><path d="M-794 5700.881h12v11h-12v-11z" fill="#6837ef" fill-rule="evenodd" data-name="Rectangle 113"/><path d="M-794 5711.881h12v12h-12v-12z" fill="#6837ef" fill-rule="evenodd" data-name="Rectangle 114"/><path d="M-794 5723.881h12v10h-12v-10z" fill="#6837ef" fill-rule="evenodd" data-name="Rectangle 115"/><path d="M-794 5745.881h12v11h-12v-11z" fill="#6837ef" fill-rule="evenodd" data-name="Rectangle 116"/><path d="M-794 5756.881h12v11h-12v-11z" fill="#6837ef" fill-rule="evenodd" data-name="Rectangle 117"/><path d="M-794 5767.881h12v11h-12v-11z" fill="#6837ef" fill-rule="evenodd" data-name="Rectangle 118"/><path d="M-794 5835.881h12v10h-12v-10z" fill="#6837ef" fill-rule="evenodd" data-name="Rectangle 119"/><path d="M-794 5845.881h12v12h-12v-12z" fill="#6837ef" fill-rule="evenodd" data-name="Rectangle 120"/><path d="M-794 5878.881h12v12h-12v-12z" fill="#6837ef" fill-rule="evenodd" data-name="Rectangle 121"/><path d="M-794 5902.881h12v10h-12v-10z" fill="#6837ef" fill-rule="evenodd" data-name="Rectangle 122"/><path d="M-794 5912.881h12v11h-12v-11z" fill="#6837ef" fill-rule="evenodd" data-name="Rectangle 123"/><path d="M-782 5645.881h11v11h-11v-11z" fill="#6837ef" fill-rule="evenodd" data-name="Rectangle 124"/><path d="M-782 5666.881h11v12h-11v-12z" fill="#6837ef" fill-rule="evenodd" data-name="Rectangle 125"/><path d="M-782 5678.881h11v12h-11v-12z" fill="#6837ef" fill-rule="evenodd" data-name="Rectangle 126"/><path d="M-782 5700.881h11v11h-11v-11z" fill="#6837ef" fill-rule="evenodd" data-name="Rectangle 127"/><path d="M-782 5723.881h11v10h-11v-10z" fill="#6837ef" fill-rule="evenodd" data-name="Rectangle 128"/><path d="M-782 5756.881h11v11h-11v-11z" fill="#6837ef" fill-rule="evenodd" data-name="Rectangle 129"/><path d="M-782 5812.881h11v11h-11v-11z" fill="#6837ef" fill-rule="evenodd" data-name="Rectangle 130"/><path d="M-782 5823.881h11v12h-11v-12z" fill="#6837ef" fill-rule="evenodd" data-name="Rectangle 131"/><path d="M-782 5845.881h11v12h-11v-12z" fill="#6837ef" fill-rule="evenodd" data-name="Rectangle 132"/><path d="M-782 5857.881h11v11h-11v-11z" fill="#6837ef" fill-rule="evenodd" data-name="Rectangle 133"/><path d="M-782 5868.881h11v10h-11v-10z" fill="#6837ef" fill-rule="evenodd" data-name="Rectangle 134"/><path d="M-782 5890.881h11v12h-11v-12z" fill="#6837ef" fill-rule="evenodd" data-name="Rectangle 135"/><path d="M-782 5902.881h11v10h-11v-10z" fill="#6837ef" fill-rule="evenodd" data-name="Rectangle 136"/><path d="M-771 5666.881h11v12h-11v-12z" fill="#6837ef" fill-rule="evenodd" data-name="Rectangle 137"/><path d="M-771 5678.881h11v12h-11v-12z" fill="#6837ef" fill-rule="evenodd" data-name="Rectangle 138"/><path d="M-771 5711.881h11v12h-11v-12z" fill="#6837ef" fill-rule="evenodd" data-name="Rectangle 139"/><path d="M-771 5733.881h11v12h-11v-12z" fill="#6837ef" fill-rule="evenodd" data-name="Rectangle 140"/><path d="M-771 5745.881h11v11h-11v-11z" fill="#6837ef" fill-rule="evenodd" data-name="Rectangle 141"/><path d="M-771 5756.881h11v11h-11v-11z" fill="#6837ef" fill-rule="evenodd" data-name="Rectangle 142"/><path d="M-771 5790.881h11v11h-11v-11z" fill="#6837ef" fill-rule="evenodd" data-name="Rectangle 143"/><path d="M-771 5812.881h11v11h-11v-11z" fill="#6837ef" fill-rule="evenodd" data-name="Rectangle 144"/><path d="M-771 5823.881h11v12h-11v-12z" fill="#6837ef" fill-rule="evenodd" data-name="Rectangle 145"/><path d="M-771 5835.881h11v10h-11v-10z" fill="#6837ef" fill-rule="evenodd" data-name="Rectangle 146"/><path d="M-771 5845.881h11v12h-11v-12z" fill="#6837ef" fill-rule="evenodd" data-name="Rectangle 147"/><path d="M-771 5857.881h11v11h-11v-11z" fill="#6837ef" fill-rule="evenodd" data-name="Rectangle 148"/><path d="M-771 5868.881h11v10h-11v-10z" fill="#6837ef" fill-rule="evenodd" data-name="Rectangle 149"/><path d="M-771 5890.881h11v12h-11v-12z" fill="#6837ef" fill-rule="evenodd" data-name="Rectangle 150"/><path d="M-771 5902.881h11v10h-11v-10z" fill="#6837ef" fill-rule="evenodd" data-name="Rectangle 151"/><path d="M-771 5912.881h11v11h-11v-11z" fill="#6837ef" fill-rule="evenodd" data-name="Rectangle 152"/><path d="M-760 5656.881h11v10h-11v-10z" fill="#6837ef" fill-rule="evenodd" data-name="Rectangle 153"/><path d="M-760 5666.881h11v12h-11v-12z" fill="#6837ef" fill-rule="evenodd" data-name="Rectangle 154"/><path d="M-760 5678.881h11v12h-11v-12z" fill="#6837ef" fill-rule="evenodd" data-name="Rectangle 155"/><path d="M-760 5700.881h11v11h-11v-11z" fill="#6837ef" fill-rule="evenodd" data-name="Rectangle 156"/><path d="M-760 5745.881h11v11h-11v-11z" fill="#6837ef" fill-rule="evenodd" data-name="Rectangle 157"/><path d="M-760 5790.881h11v11h-11v-11z" fill="#6837ef" fill-rule="evenodd" data-name="Rectangle 158"/><path d="M-760 5823.881h11v12h-11v-12z" fill="#6837ef" fill-rule="evenodd" data-name="Rectangle 159"/><path d="M-760 5857.881h11v11h-11v-11z" fill="#6837ef" fill-rule="evenodd" data-name="Rectangle 160"/><path d="M-760 5902.881h11v10h-11v-10z" fill="#6837ef" fill-rule="evenodd" data-name="Rectangle 161"/><path d="M-760 5912.881h11v11h-11v-11z" fill="#6837ef" fill-rule="evenodd" data-name="Rectangle 162"/><path d="M-749 5645.881h12v11h-12v-11z" fill="#6837ef" fill-rule="evenodd" data-name="Rectangle 163"/><path d="M-749 5656.881h12v10h-12v-10z" fill="#6837ef" fill-rule="evenodd" data-name="Rectangle 164"/><path d="M-749 5666.881h12v12h-12v-12z" fill="#6837ef" fill-rule="evenodd" data-name="Rectangle 165"/><path d="M-749 5711.881h12v12h-12v-12z" fill="#6837ef" fill-rule="evenodd" data-name="Rectangle 166"/><path d="M-749 5723.881h12v10h-12v-10z" fill="#6837ef" fill-rule="evenodd" data-name="Rectangle 167"/><path d="M-749 5778.881h12v12h-12v-12z" fill="#6837ef" fill-rule="evenodd" data-name="Rectangle 168"/><path d="M-749 5790.881h12v11h-12v-11z" fill="#6837ef" fill-rule="evenodd" data-name="Rectangle 169"/><path d="M-749 5801.881h12v11h-12v-11z" fill="#6837ef" fill-rule="evenodd" data-name="Rectangle 170"/><path d="M-749 5812.881h12v11h-12v-11z" fill="#6837ef" fill-rule="evenodd" data-name="Rectangle 171"/><path d="M-749 5823.881h12v12h-12v-12z" fill="#6837ef" fill-rule="evenodd" data-name="Rectangle 172"/><path d="M-749 5857.881h12v11h-12v-11z" fill="#6837ef" fill-rule="evenodd" data-name="Rectangle 173"/><path d="M-749 5868.881h12v10h-12v-10z" fill="#6837ef" fill-rule="evenodd" data-name="Rectangle 174"/><path d="M-749 5878.881h12v12h-12v-12z" fill="#6837ef" fill-rule="evenodd" data-name="Rectangle 175"/><path d="M-749 5902.881h12v10h-12v-10z" fill="#6837ef" fill-rule="evenodd" data-name="Rectangle 176"/><path d="M-749 5912.881h12v11h-12v-11z" fill="#6837ef" fill-rule="evenodd" data-name="Rectangle 177"/><path d="M-737 5690.881h11v10h-11v-10z" fill="#6837ef" fill-rule="evenodd" data-name="Rectangle 178"/><path d="M-737 5733.881h11v12h-11v-12z" fill="#6837ef" fill-rule="evenodd" data-name="Rectangle 179"/><path d="M-737 5745.881h11v11h-11v-11z" fill="#6837ef" fill-rule="evenodd" data-name="Rectangle 180"/><path d="M-737 5756.881h11v11h-11v-11z" fill="#6837ef" fill-rule="evenodd" data-name="Rectangle 181"/><path d="M-737 5767.881h11v11h-11v-11z" fill="#6837ef" fill-rule="evenodd" data-name="Rectangle 182"/><path d="M-737 5778.881h11v12h-11v-12z" fill="#6837ef" fill-rule="evenodd" data-name="Rectangle 183"/><path d="M-737 5812.881h11v11h-11v-11z" fill="#6837ef" fill-rule="evenodd" data-name="Rectangle 184"/><path d="M-737 5845.881h11v12h-11v-12z" fill="#6837ef" fill-rule="evenodd" data-name="Rectangle 185"/><path d="M-737 5868.881h11v10h-11v-10z" fill="#6837ef" fill-rule="evenodd" data-name="Rectangle 186"/><path d="M-737 5878.881h11v12h-11v-12z" fill="#6837ef" fill-rule="evenodd" data-name="Rectangle 187"/><path d="M-737 5902.881h11v10h-11v-10z" fill="#6837ef" fill-rule="evenodd" data-name="Rectangle 188"/><path d="M-737 5912.881h11v11h-11v-11z" fill="#6837ef" fill-rule="evenodd" data-name="Rectangle 189"/><path d="M-726 5656.881h11v10h-11v-10z" fill="#6837ef" fill-rule="evenodd" data-name="Rectangle 190"/><path d="M-726 5678.881h11v12h-11v-12z" fill="#6837ef" fill-rule="evenodd" data-name="Rectangle 191"/><path d="M-726 5690.881h11v10h-11v-10z" fill="#6837ef" fill-rule="evenodd" data-name="Rectangle 192"/><path d="M-726 5700.881h11v11h-11v-11z" fill="#6837ef" fill-rule="evenodd" data-name="Rectangle 193"/><path d="M-726 5711.881h11v12h-11v-12z" fill="#6837ef" fill-rule="evenodd" data-name="Rectangle 194"/><path d="M-726 5723.881h11v10h-11v-10z" fill="#6837ef" fill-rule="evenodd" data-name="Rectangle 195"/><path d="M-726 5733.881h11v12h-11v-12z" fill="#6837ef" fill-rule="evenodd" data-name="Rectangle 196"/><path d="M-726 5756.881h11v11h-11v-11z" fill="#6837ef" fill-rule="evenodd" data-name="Rectangle 197"/><path d="M-726 5790.881h11v11h-11v-11z" fill="#6837ef" fill-rule="evenodd" data-name="Rectangle 198"/><path d="M-726 5823.881h11v12h-11v-12z" fill="#6837ef" fill-rule="evenodd" data-name="Rectangle 199"/><path d="M-726 5835.881h11v10h-11v-10z" fill="#6837ef" fill-rule="evenodd" data-name="Rectangle 200"/><path d="M-726 5868.881h11v10h-11v-10z" fill="#6837ef" fill-rule="evenodd" data-name="Rectangle 201"/><path d="M-726 5890.881h11v12h-11v-12z" fill="#6837ef" fill-rule="evenodd" data-name="Rectangle 202"/><path d="M-715 5645.881h11v11h-11v-11z" fill="#6837ef" fill-rule="evenodd" data-name="Rectangle 203"/><path d="M-715 5656.881h11v10h-11v-10z" fill="#6837ef" fill-rule="evenodd" data-name="Rectangle 204"/><path d="M-715 5678.881h11v12h-11v-12z" fill="#6837ef" fill-rule="evenodd" data-name="Rectangle 205"/><path d="M-715 5690.881h11v10h-11v-10z" fill="#6837ef" fill-rule="evenodd" data-name="Rectangle 206"/><path d="M-715 5700.881h11v11h-11v-11z" fill="#6837ef" fill-rule="evenodd" data-name="Rectangle 207"/><path d="M-715 5733.881h11v12h-11v-12z" fill="#6837ef" fill-rule="evenodd" data-name="Rectangle 208"/><path d="M-715 5812.881h11v11h-11v-11z" fill="#6837ef" fill-rule="evenodd" data-name="Rectangle 209"/><path d="M-715 5835.881h11v10h-11v-10z" fill="#6837ef" fill-rule="evenodd" data-name="Rectangle 210"/><path d="M-715 5845.881h11v12h-11v-12z" fill="#6837ef" fill-rule="evenodd" data-name="Rectangle 211"/><path d="M-715 5890.881h11v12h-11v-12z" fill="#6837ef" fill-rule="evenodd" data-name="Rectangle 212"/><path d="M-715 5902.881h11v10h-11v-10z" fill="#6837ef" fill-rule="evenodd" data-name="Rectangle 213"/><path d="M-715 5912.881h11v11h-11v-11z" fill="#6837ef" fill-rule="evenodd" data-name="Rectangle 214"/><path d="M-704 5690.881h12v10h-12v-10z" fill="#6837ef" fill-rule="evenodd" data-name="Rectangle 215"/><path d="M-704 5700.881h12v11h-12v-11z" fill="#6837ef" fill-rule="evenodd" data-name="Rectangle 216"/><path d="M-704 5711.881h12v12h-12v-12z" fill="#6837ef" fill-rule="evenodd" data-name="Rectangle 217"/><path d="M-704 5723.881h12v10h-12v-10z" fill="#6837ef" fill-rule="evenodd" data-name="Rectangle 218"/><path d="M-704 5733.881h12v12h-12v-12z" fill="#6837ef" fill-rule="evenodd" data-name="Rectangle 219"/><path d="M-704 5745.881h12v11h-12v-11z" fill="#6837ef" fill-rule="evenodd" data-name="Rectangle 220"/><path d="M-704 5823.881h12v12h-12v-12z" fill="#6837ef" fill-rule="evenodd" data-name="Rectangle 221"/><path d="M-704 5835.881h12v10h-12v-10z" fill="#6837ef" fill-rule="evenodd" data-name="Rectangle 222"/><path d="M-704 5845.881h12v12h-12v-12z" fill="#6837ef" fill-rule="evenodd" data-name="Rectangle 223"/><path d="M-704 5857.881h12v11h-12v-11z" fill="#6837ef" fill-rule="evenodd" data-name="Rectangle 224"/><path d="M-704 5868.881h12v10h-12v-10z" fill="#6837ef" fill-rule="evenodd" data-name="Rectangle 225"/><path d="M-704 5890.881h12v12h-12v-12z" fill="#6837ef" fill-rule="evenodd" data-name="Rectangle 226"/><path d="M-704 5902.881h12v10h-12v-10z" fill="#6837ef" fill-rule="evenodd" data-name="Rectangle 227"/><path d="M-704 5912.881h12v11h-12v-11z" fill="#6837ef" fill-rule="evenodd" data-name="Rectangle 228"/><path d="M-692 5745.881h10v11h-10v-11z" fill="#6837ef" fill-rule="evenodd" data-name="Rectangle 229"/><path d="M-692 5756.881h10v11h-10v-11z" fill="#6837ef" fill-rule="evenodd" data-name="Rectangle 230"/><path d="M-692 5767.881h10v11h-10v-11z" fill="#6837ef" fill-rule="evenodd" data-name="Rectangle 231"/><path d="M-692 5778.881h10v12h-10v-12z" fill="#6837ef" fill-rule="evenodd" data-name="Rectangle 232"/><path d="M-692 5790.881h10v11h-10v-11z" fill="#6837ef" fill-rule="evenodd" data-name="Rectangle 233"/><path d="M-692 5801.881h10v11h-10v-11z" fill="#6837ef" fill-rule="evenodd" data-name="Rectangle 234"/><path d="M-692 5823.881h10v12h-10v-12z" fill="#6837ef" fill-rule="evenodd" data-name="Rectangle 235"/><path d="M-692 5868.881h10v10h-10v-10z" fill="#6837ef" fill-rule="evenodd" data-name="Rectangle 236"/><path d="M-692 5902.881h10v10h-10v-10z" fill="#6837ef" fill-rule="evenodd" data-name="Rectangle 237"/><path d="M-682 5645.881h12v11h-12v-11z" fill="#6837ef" fill-rule="evenodd" data-name="Rectangle 238"/><path d="M-682 5656.881h12v10h-12v-10z" fill="#6837ef" fill-rule="evenodd" data-name="Rectangle 239"/><path d="M-682 5666.881h12v12h-12v-12z" fill="#6837ef" fill-rule="evenodd" data-name="Rectangle 240"/><path d="M-682 5678.881h12v12h-12v-12z" fill="#6837ef" fill-rule="evenodd" data-name="Rectangle 241"/><path d="M-682 5690.881h12v10h-12v-10z" fill="#6837ef" fill-rule="evenodd" data-name="Rectangle 242"/><path d="M-682 5700.881h12v11h-12v-11z" fill="#6837ef" fill-rule="evenodd" data-name="Rectangle 243"/><path d="M-682 5711.881h12v12h-12v-12z" fill="#6837ef" fill-rule="evenodd" data-name="Rectangle 244"/><path d="M-682 5733.881h12v12h-12v-12z" fill="#6837ef" fill-rule="evenodd" data-name="Rectangle 245"/><path d="M-682 5745.881h12v11h-12v-11z" fill="#6837ef" fill-rule="evenodd" data-name="Rectangle 246"/><path d="M-682 5767.881h12v11h-12v-11z" fill="#6837ef" fill-rule="evenodd" data-name="Rectangle 247"/><path d="M-682 5778.881h12v12h-12v-12z" fill="#6837ef" fill-rule="evenodd" data-name="Rectangle 248"/><path d="M-682 5790.881h12v11h-12v-11z" fill="#6837ef" fill-rule="evenodd" data-name="Rectangle 249"/><path d="M-682 5823.881h12v12h-12v-12z" fill="#6837ef" fill-rule="evenodd" data-name="Rectangle 250"/><path d="M-682 5845.881h12v12h-12v-12z" fill="#6837ef" fill-rule="evenodd" data-name="Rectangle 251"/><path d="M-682 5868.881h12v10h-12v-10z" fill="#6837ef" fill-rule="evenodd" data-name="Rectangle 252"/><path d="M-682 5902.881h12v10h-12v-10z" fill="#6837ef" fill-rule="evenodd" data-name="Rectangle 253"/><path d="M-670 5645.881h11v11h-11v-11z" fill="#6837ef" fill-rule="evenodd" data-name="Rectangle 254"/><path d="M-670 5711.881h11v12h-11v-12z" fill="#6837ef" fill-rule="evenodd" data-name="Rectangle 255"/><path d="M-670 5733.881h11v12h-11v-12z" fill="#6837ef" fill-rule="evenodd" data-name="Rectangle 256"/><path d="M-670 5767.881h11v11h-11v-11z" fill="#6837ef" fill-rule="evenodd" data-name="Rectangle 257"/><path d="M-670 5790.881h11v11h-11v-11z" fill="#6837ef" fill-rule="evenodd" data-name="Rectangle 258"/><path d="M-670 5801.881h11v11h-11v-11z" fill="#6837ef" fill-rule="evenodd" data-name="Rectangle 259"/><path d="M-670 5823.881h11v12h-11v-12z" fill="#6837ef" fill-rule="evenodd" data-name="Rectangle 260"/><path d="M-670 5868.881h11v10h-11v-10z" fill="#6837ef" fill-rule="evenodd" data-name="Rectangle 261"/><path d="M-670 5878.881h11v12h-11v-12z" fill="#6837ef" fill-rule="evenodd" data-name="Rectangle 262"/><path d="M-670 5890.881h11v12h-11v-12z" fill="#6837ef" fill-rule="evenodd" data-name="Rectangle 263"/><path d="M-670 5912.881h11v11h-11v-11z" fill="#6837ef" fill-rule="evenodd" data-name="Rectangle 264"/><path d="M-659 5645.881h10v11h-10v-11z" fill="#6837ef" fill-rule="evenodd" data-name="Rectangle 265"/><path d="M-659 5666.881h10v12h-10v-12z" fill="#6837ef" fill-rule="evenodd" data-name="Rectangle 266"/><path d="M-659 5678.881h10v12h-10v-12z" fill="#6837ef" fill-rule="evenodd" data-name="Rectangle 267"/><path d="M-659 5690.881h10v10h-10v-10z" fill="#6837ef" fill-rule="evenodd" data-name="Rectangle 268"/><path d="M-659 5711.881h10v12h-10v-12z" fill="#6837ef" fill-rule="evenodd" data-name="Rectangle 269"/><path d="M-659 5733.881h10v12h-10v-12z" fill="#6837ef" fill-rule="evenodd" data-name="Rectangle 270"/><path d="M-659 5767.881h10v11h-10v-11z" fill="#6837ef" fill-rule="evenodd" data-name="Rectangle 271"/><path d="M-659 5801.881h10v11h-10v-11z" fill="#6837ef" fill-rule="evenodd" data-name="Rectangle 272"/><path d="M-659 5812.881h10v11h-10v-11z" fill="#6837ef" fill-rule="evenodd" data-name="Rectangle 273"/><path d="M-659 5823.881h10v12h-10v-12z" fill="#6837ef" fill-rule="evenodd" data-name="Rectangle 274"/><path d="M-659 5835.881h10v10h-10v-10z" fill="#6837ef" fill-rule="evenodd" data-name="Rectangle 275"/><path d="M-659 5845.881h10v12h-10v-12z" fill="#6837ef" fill-rule="evenodd" data-name="Rectangle 276"/><path d="M-659 5857.881h10v11h-10v-11z" fill="#6837ef" fill-rule="evenodd" data-name="Rectangle 277"/><path d="M-659 5868.881h10v10h-10v-10z" fill="#6837ef" fill-rule="evenodd" data-name="Rectangle 278"/><path d="M-659 5878.881h10v12h-10v-12z" fill="#6837ef" fill-rule="evenodd" data-name="Rectangle 279"/><path d="M-659 5890.881h10v12h-10v-12z" fill="#6837ef" fill-rule="evenodd" data-name="Rectangle 280"/><path d="M-649 5645.881h12v11h-12v-11z" fill="#6837ef" fill-rule="evenodd" data-name="Rectangle 281"/><path d="M-649 5666.881h12v12h-12v-12z" fill="#6837ef" fill-rule="evenodd" data-name="Rectangle 282"/><path d="M-649 5678.881h12v12h-12v-12z" fill="#6837ef" fill-rule="evenodd" data-name="Rectangle 283"/><path d="M-649 5690.881h12v10h-12v-10z" fill="#6837ef" fill-rule="evenodd" data-name="Rectangle 284"/><path d="M-649 5711.881h12v12h-12v-12z" fill="#6837ef" fill-rule="evenodd" data-name="Rectangle 285"/><path d="M-649 5778.881h12v12h-12v-12z" fill="#6837ef" fill-rule="evenodd" data-name="Rectangle 286"/><path d="M-649 5790.881h12v11h-12v-11z" fill="#6837ef" fill-rule="evenodd" data-name="Rectangle 287"/><path d="M-649 5823.881h12v12h-12v-12z" fill="#6837ef" fill-rule="evenodd" data-name="Rectangle 288"/><path d="M-649 5835.881h12v10h-12v-10z" fill="#6837ef" fill-rule="evenodd" data-name="Rectangle 289"/><path d="M-649 5845.881h12v12h-12v-12z" fill="#6837ef" fill-rule="evenodd" data-name="Rectangle 290"/><path d="M-649 5857.881h12v11h-12v-11z" fill="#6837ef" fill-rule="evenodd" data-name="Rectangle 291"/><path d="M-649 5868.881h12v10h-12v-10z" fill="#6837ef" fill-rule="evenodd" data-name="Rectangle 292"/><path d="M-649 5878.881h12v12h-12v-12z" fill="#6837ef" fill-rule="evenodd" data-name="Rectangle 293"/><path d="M-649 5902.881h12v10h-12v-10z" fill="#6837ef" fill-rule="evenodd" data-name="Rectangle 294"/><path d="M-637 5645.881h12v11h-12v-11z" fill="#6837ef" fill-rule="evenodd" data-name="Rectangle 295"/><path d="M-637 5666.881h12v12h-12v-12z" fill="#6837ef" fill-rule="evenodd" data-name="Rectangle 296"/><path d="M-637 5678.881h12v12h-12v-12z" fill="#6837ef" fill-rule="evenodd" data-name="Rectangle 297"/><path d="M-637 5690.881h12v10h-12v-10z" fill="#6837ef" fill-rule="evenodd" data-name="Rectangle 298"/><path d="M-637 5711.881h12v12h-12v-12z" fill="#6837ef" fill-rule="evenodd" data-name="Rectangle 299"/><path d="M-637 5733.881h12v12h-12v-12z" fill="#6837ef" fill-rule="evenodd" data-name="Rectangle 300"/><path d="M-637 5790.881h12v11h-12v-11z" fill="#6837ef" fill-rule="evenodd" data-name="Rectangle 301"/><path d="M-637 5801.881h12v11h-12v-11z" fill="#6837ef" fill-rule="evenodd" data-name="Rectangle 302"/><path d="M-637 5823.881h12v12h-12v-12z" fill="#6837ef" fill-rule="evenodd" data-name="Rectangle 303"/><path d="M-637 5857.881h12v11h-12v-11z" fill="#6837ef" fill-rule="evenodd" data-name="Rectangle 304"/><path d="M-637 5878.881h12v12h-12v-12z" fill="#6837ef" fill-rule="evenodd" data-name="Rectangle 305"/><path d="M-637 5890.881h12v12h-12v-12z" fill="#6837ef" fill-rule="evenodd" data-name="Rectangle 306"/><path d="M-625 5645.881h10v11h-10v-11z" fill="#6837ef" fill-rule="evenodd" data-name="Rectangle 307"/><path d="M-625 5711.881h10v12h-10v-12z" fill="#6837ef" fill-rule="evenodd" data-name="Rectangle 308"/><path d="M-625 5733.881h10v12h-10v-12z" fill="#6837ef" fill-rule="evenodd" data-name="Rectangle 309"/><path d="M-625 5756.881h10v11h-10v-11z" fill="#6837ef" fill-rule="evenodd" data-name="Rectangle 310"/><path d="M-625 5778.881h10v12h-10v-12z" fill="#6837ef" fill-rule="evenodd" data-name="Rectangle 311"/><path d="M-625 5812.881h10v11h-10v-11z" fill="#6837ef" fill-rule="evenodd" data-name="Rectangle 312"/><path d="M-625 5845.881h10v12h-10v-12z" fill="#6837ef" fill-rule="evenodd" data-name="Rectangle 313"/><path d="M-625 5868.881h10v10h-10v-10z" fill="#6837ef" fill-rule="evenodd" data-name="Rectangle 314"/><path d="M-625 5912.881h10v11h-10v-11z" fill="#6837ef" fill-rule="evenodd" data-name="Rectangle 315"/><path d="M-615 5645.881h11v11h-11v-11z" fill="#6837ef" fill-rule="evenodd" data-name="Rectangle 316"/><path d="M-615 5656.881h11v10h-11v-10z" fill="#6837ef" fill-rule="evenodd" data-name="Rectangle 317"/><path d="M-615 5666.881h11v12h-11v-12z" fill="#6837ef" fill-rule="evenodd" data-name="Rectangle 318"/><path d="M-615 5678.881h11v12h-11v-12z" fill="#6837ef" fill-rule="evenodd" data-name="Rectangle 319"/><path d="M-615 5690.881h11v10h-11v-10z" fill="#6837ef" fill-rule="evenodd" data-name="Rectangle 320"/><path d="M-615 5700.881h11v11h-11v-11z" fill="#6837ef" fill-rule="evenodd" data-name="Rectangle 321"/><path d="M-615 5711.881h11v12h-11v-12z" fill="#6837ef" fill-rule="evenodd" data-name="Rectangle 322"/><path d="M-615 5745.881h11v11h-11v-11z" fill="#6837ef" fill-rule="evenodd" data-name="Rectangle 323"/><path d="M-615 5756.881h11v11h-11v-11z" fill="#6837ef" fill-rule="evenodd" data-name="Rectangle 324"/><path d="M-615 5778.881h11v12h-11v-12z" fill="#6837ef" fill-rule="evenodd" data-name="Rectangle 325"/><path d="M-615 5790.881h11v11h-11v-11z" fill="#6837ef" fill-rule="evenodd" data-name="Rectangle 326"/><path d="M-615 5801.881h11v11h-11v-11z" fill="#6837ef" fill-rule="evenodd" data-name="Rectangle 327"/><path d="M-615 5835.881h11v10h-11v-10z" fill="#6837ef" fill-rule="evenodd" data-name="Rectangle 328"/><path d="M-615 5845.881h11v12h-11v-12z" fill="#6837ef" fill-rule="evenodd" data-name="Rectangle 329"/><path d="M-615 5890.881h11v12h-11v-12z" fill="#6837ef" fill-rule="evenodd" data-name="Rectangle 330"/><path d="M-615 5912.881h11v11h-11v-11z" fill="#6837ef" fill-rule="evenodd" data-name="Rectangle 331"/></g></g></svg>