<svg xmlns="http://www.w3.org/2000/svg" width="251.466" height="84.058" viewBox="179 3020.943 251.466 84.058"><g data-name="Download_on_the_App_Store_Badge_US-UK_RGB_wht_092917"><g data-name="Group 132"><g data-name="Group 130"><path d="M410.44 3020.943H199.037c-.77 0-1.531 0-2.3.004-.643.004-1.282.017-1.931.027a27.77 27.77 0 0 0-4.211.371c-1.39.236-2.737.68-3.995 1.318a13.529 13.529 0 0 0-3.401 2.477 13.152 13.152 0 0 0-2.476 3.406 13.872 13.872 0 0 0-1.314 4 27.303 27.303 0 0 0-.376 4.207c-.02.644-.022 1.29-.032 1.935v48.573c.01.653.012 1.285.032 1.938.017 1.41.142 2.816.376 4.206a13.843 13.843 0 0 0 1.314 4.002 13.045 13.045 0 0 0 2.476 3.392 13.185 13.185 0 0 0 3.401 2.477 14.081 14.081 0 0 0 3.995 1.326c1.392.229 2.8.353 4.21.372.65.014 1.289.022 1.932.022.769.004 1.53.004 2.3.004h211.405c.755 0 1.522 0 2.278-.004.64 0 1.297-.008 1.937-.022a27.904 27.904 0 0 0 4.203-.372 14.299 14.299 0 0 0 4.01-1.326 13.192 13.192 0 0 0 3.398-2.477c1-.993 1.839-2.138 2.483-3.392a13.878 13.878 0 0 0 1.301-4.002 28.38 28.38 0 0 0 .39-4.206c.008-.653.008-1.285.008-1.938.017-.763.017-1.522.017-2.298v-43.98c0-.77 0-1.533-.017-2.295 0-.644 0-1.29-.008-1.935a28.38 28.38 0 0 0-.39-4.207 13.907 13.907 0 0 0-1.3-4 13.588 13.588 0 0 0-5.882-5.883 14.222 14.222 0 0 0-4.01-1.318 27.41 27.41 0 0 0-4.203-.371c-.64-.01-1.297-.023-1.937-.027-.756-.004-1.523-.004-2.278-.004Z" fill-rule="evenodd" data-name="Path 1178"/><path d="M196.746 3103.162c-.64 0-1.265-.009-1.9-.023a26.662 26.662 0 0 1-3.928-.343 12.364 12.364 0 0 1-3.481-1.151 11.36 11.36 0 0 1-2.936-2.136 11.181 11.181 0 0 1-2.145-2.935 12.024 12.024 0 0 1-1.14-3.483 26.086 26.086 0 0 1-.35-3.94c-.014-.443-.031-1.919-.031-1.919v-48.544s.018-1.453.03-1.88c.016-1.318.133-2.633.348-3.934.2-1.215.586-2.393 1.142-3.492a11.292 11.292 0 0 1 2.134-2.938 11.695 11.695 0 0 1 2.947-2.149 12.237 12.237 0 0 1 3.474-1.143 26.449 26.449 0 0 1 3.941-.345l1.896-.025h215.961l1.92.026c1.308.016 2.613.13 3.904.342 1.221.208 2.405.596 3.512 1.151a11.755 11.755 0 0 1 5.075 5.086 12.11 12.11 0 0 1 1.124 3.465c.218 1.311.34 2.637.366 3.966.006.595.006 1.234.006 1.87.016.788.016 1.538.016 2.295v43.98c0 .763 0 1.508-.016 2.26 0 .683 0 1.309-.009 1.953a26.75 26.75 0 0 1-.359 3.895 12.06 12.06 0 0 1-1.134 3.51 11.517 11.517 0 0 1-2.135 2.911 11.374 11.374 0 0 1-2.94 2.149 12.318 12.318 0 0 1-3.506 1.155 26.357 26.357 0 0 1-3.928.343 82.27 82.27 0 0 1-1.885.023l-2.278.004-213.695-.004Z" fill="#fff" fill-rule="evenodd" data-name="Path 1179"/></g><g data-name="&lt;Group&gt;"><g data-name="&lt;Group&gt;"><path d="M231.529 3062.74a10.814 10.814 0 0 1 5.15-9.074 11.07 11.07 0 0 0-8.722-4.715c-3.67-.386-7.227 2.195-9.097 2.195-1.906 0-4.785-2.157-7.886-2.093a11.615 11.615 0 0 0-9.774 5.96c-4.227 7.318-1.074 18.072 2.974 23.987 2.026 2.896 4.393 6.131 7.49 6.016 3.032-.125 4.164-1.933 7.822-1.933 3.625 0 4.687 1.933 7.848 1.86 3.252-.052 5.302-2.909 7.256-5.832a23.955 23.955 0 0 0 3.318-6.758 10.45 10.45 0 0 1-6.38-9.614ZM225.56 3045.06a10.648 10.648 0 0 0 2.435-7.627 10.833 10.833 0 0 0-7.01 3.626 10.132 10.132 0 0 0-2.499 7.346 8.958 8.958 0 0 0 7.074-3.344Z" fill-rule="evenodd" data-name="&lt;Path&gt;"/></g><g data-name="Group 131"><path d="M267.894 3077.975h-9.947l-2.388 7.053h-4.213l9.421-26.095h4.377l9.422 26.095h-4.285l-2.387-7.053Zm-8.916-3.255h7.884l-3.887-11.447h-.109l-3.888 11.447Z" fill-rule="evenodd" data-name="Path 1180"/><path d="M294.913 3075.517c0 5.912-3.164 9.71-7.94 9.71a6.45 6.45 0 0 1-5.986-3.328h-.09v9.423h-3.905v-25.32h3.78v3.165h.071a6.749 6.749 0 0 1 6.058-3.363c4.83 0 8.012 3.817 8.012 9.713Zm-4.014 0c0-3.852-1.99-6.385-5.028-6.385-2.984 0-4.99 2.586-4.99 6.385 0 3.833 2.006 6.4 4.99 6.4 3.038 0 5.028-2.514 5.028-6.4Z" fill-rule="evenodd" data-name="Path 1181"/><path d="M315.855 3075.517c0 5.912-3.166 9.71-7.941 9.71a6.45 6.45 0 0 1-5.986-3.328h-.09v9.423h-3.906v-25.32h3.78v3.165h.072a6.749 6.749 0 0 1 6.058-3.363c4.829 0 8.013 3.817 8.013 9.713Zm-4.015 0c0-3.852-1.991-6.385-5.028-6.385-2.984 0-4.991 2.586-4.991 6.385 0 3.833 2.007 6.4 4.99 6.4 3.038 0 5.029-2.514 5.029-6.4Z" fill-rule="evenodd" data-name="Path 1182"/><path d="M329.693 3077.758c.289 2.587 2.803 4.287 6.238 4.287 3.292 0 5.66-1.7 5.66-4.033 0-2.026-1.428-3.238-4.81-4.07l-3.382-.814c-4.792-1.158-7.017-3.399-7.017-7.035 0-4.503 3.924-7.595 9.494-7.595 5.516 0 9.296 3.092 9.423 7.595h-3.942c-.236-2.604-2.389-4.176-5.535-4.176-3.146 0-5.298 1.59-5.298 3.905 0 1.845 1.375 2.93 4.738 3.762l2.875.706c5.354 1.266 7.577 3.416 7.577 7.233 0 4.883-3.887 7.94-10.072 7.94-5.787 0-9.695-2.986-9.947-7.706h3.998Z" fill-rule="evenodd" data-name="Path 1183"/><path d="M354.146 3061.5v4.503h3.618v3.092h-3.618v10.489c0 1.63.725 2.389 2.315 2.389.43-.008.859-.038 1.285-.09v3.074c-.715.133-1.442.194-2.17.18-3.851 0-5.353-1.447-5.353-5.136v-10.906h-2.767v-3.092h2.767v-4.503h3.923Z" fill-rule="evenodd" data-name="Path 1184"/><path d="M359.858 3075.517c0-5.987 3.525-9.748 9.023-9.748 5.516 0 9.026 3.761 9.026 9.748 0 6.002-3.491 9.747-9.026 9.747-5.533 0-9.023-3.745-9.023-9.747Zm14.07 0c0-4.107-1.883-6.53-5.047-6.53-3.164 0-5.046 2.442-5.046 6.53 0 4.122 1.882 6.528 5.046 6.528 3.164 0 5.046-2.406 5.046-6.528Z" fill-rule="evenodd" data-name="Path 1185"/><path d="M381.126 3066.003h3.725v3.238h.09a4.538 4.538 0 0 1 4.577-3.437c.45-.002.899.047 1.338.145v3.653a5.46 5.46 0 0 0-1.755-.236 3.935 3.935 0 0 0-4.07 4.377v11.285h-3.905v-19.025Z" fill-rule="evenodd" data-name="Path 1186"/><path d="M408.862 3079.44c-.526 3.454-3.89 5.824-8.193 5.824-5.535 0-8.97-3.708-8.97-9.657 0-5.968 3.454-9.838 8.806-9.838 5.264 0 8.574 3.616 8.574 9.384v1.338h-13.438v.236a4.955 4.955 0 0 0 5.119 5.39 4.304 4.304 0 0 0 4.393-2.677h3.709Zm-13.202-5.678h9.512a4.575 4.575 0 0 0-4.667-4.829 4.817 4.817 0 0 0-4.845 4.829Z" fill-rule="evenodd" data-name="Path 1187"/></g></g></g><g data-name="&lt;Group&gt;"><g data-name="Group 133"><path d="M258.49 3039.29a5.547 5.547 0 0 1 5.9 6.231c0 4.006-2.166 6.309-5.9 6.309h-4.53v-12.54h4.53Zm-2.583 10.766h2.365a3.942 3.942 0 0 0 4.135-4.51 3.953 3.953 0 0 0-4.135-4.483h-2.365v8.993Z" fill-rule="evenodd" data-name="Path 1188"/><path d="M266.59 3047.094a4.483 4.483 0 1 1 8.924 0 4.484 4.484 0 1 1-8.925 0Zm7.003 0c0-2.051-.921-3.25-2.538-3.25-1.624 0-2.537 1.199-2.537 3.25 0 2.068.913 3.258 2.537 3.258 1.617 0 2.538-1.199 2.538-3.258Z" fill-rule="evenodd" data-name="Path 1189"/><path d="M287.378 3051.83h-1.938l-1.955-6.97h-.148l-1.948 6.97h-1.918l-2.609-9.463h1.894l1.696 7.22h.14l1.945-7.22h1.791l1.946 7.22h.147l1.687-7.22h1.868l-2.598 9.462Z" fill-rule="evenodd" data-name="Path 1190"/><path d="M292.17 3042.367h1.797v1.503h.14a2.833 2.833 0 0 1 2.824-1.686 3.078 3.078 0 0 1 3.275 3.52v6.125h-1.868v-5.656c0-1.521-.66-2.277-2.042-2.277a2.17 2.17 0 0 0-2.259 2.398v5.535h-1.868v-9.462Z" fill-rule="evenodd" data-name="Path 1191"/><path d="M303.181 3038.673h1.868v13.156h-1.868v-13.156Z" fill-rule="evenodd" data-name="Path 1192"/><path d="M307.645 3047.094a4.483 4.483 0 1 1 8.926 0 4.484 4.484 0 1 1-8.926 0Zm7.004 0c0-2.051-.921-3.25-2.538-3.25-1.624 0-2.537 1.199-2.537 3.25 0 2.068.913 3.258 2.537 3.258 1.617 0 2.538-1.199 2.538-3.258Z" fill-rule="evenodd" data-name="Path 1193"/><path d="M318.537 3049.153c0-1.703 1.268-2.685 3.52-2.825l2.563-.147v-.817c0-1-.661-1.564-1.938-1.564-1.042 0-1.765.383-1.972 1.052h-1.808c.191-1.625 1.72-2.668 3.867-2.668 2.372 0 3.71 1.181 3.71 3.18v6.465h-1.798v-1.33h-.148a3.184 3.184 0 0 1-2.842 1.486 2.858 2.858 0 0 1-3.154-2.832Zm6.083-.808v-.791l-2.311.147c-1.303.088-1.894.53-1.894 1.365 0 .852.738 1.347 1.754 1.347a2.23 2.23 0 0 0 2.45-2.068Z" fill-rule="evenodd" data-name="Path 1194"/><path d="M328.933 3047.094c0-2.99 1.537-4.884 3.928-4.884a3.119 3.119 0 0 1 2.902 1.66h.14v-5.197h1.867v13.156h-1.79v-1.495h-.147a3.284 3.284 0 0 1-2.972 1.651c-2.407 0-3.928-1.894-3.928-4.891Zm1.93 0c0 2.007.945 3.215 2.528 3.215 1.574 0 2.546-1.225 2.546-3.207 0-1.972-.983-3.215-2.546-3.215-1.572 0-2.529 1.216-2.529 3.207Z" fill-rule="evenodd" data-name="Path 1195"/><path d="M345.496 3047.094a4.483 4.483 0 1 1 8.925 0 4.484 4.484 0 1 1-8.925 0Zm7.004 0c0-2.051-.921-3.25-2.538-3.25-1.623 0-2.537 1.199-2.537 3.25 0 2.068.914 3.258 2.537 3.258 1.617 0 2.538-1.199 2.538-3.258Z" fill-rule="evenodd" data-name="Path 1196"/><path d="M356.927 3042.367h1.798v1.503h.14a2.833 2.833 0 0 1 2.823-1.686 3.078 3.078 0 0 1 3.275 3.52v6.125h-1.867v-5.656c0-1.521-.66-2.277-2.042-2.277a2.17 2.17 0 0 0-2.26 2.398v5.535h-1.867v-9.462Z" fill-rule="evenodd" data-name="Path 1197"/><path d="M375.516 3040.01v2.4h2.05v1.573h-2.05v4.866c0 .99.408 1.425 1.338 1.425.238-.001.475-.015.712-.043v1.555c-.336.06-.675.092-1.016.096-2.077 0-2.904-.73-2.904-2.555v-5.344h-1.502v-1.573h1.502v-2.4h1.87Z" fill-rule="evenodd" data-name="Path 1198"/><path d="M380.117 3038.673h1.85v5.214h.148a2.912 2.912 0 0 1 2.886-1.695 3.117 3.117 0 0 1 3.259 3.528v6.11h-1.87v-5.65c0-1.51-.704-2.276-2.023-2.276a2.21 2.21 0 0 0-2.383 2.399v5.526h-1.867v-13.156Z" fill-rule="evenodd" data-name="Path 1199"/><path d="M399.149 3049.274a3.841 3.841 0 0 1-4.1 2.738 4.298 4.298 0 0 1-4.372-4.884 4.364 4.364 0 0 1 4.363-4.944c2.633 0 4.221 1.799 4.221 4.77v.652h-6.681v.105a2.501 2.501 0 0 0 2.52 2.71 2.268 2.268 0 0 0 2.25-1.147h1.799Zm-6.57-3.05h4.78a2.283 2.283 0 0 0-2.33-2.45 2.42 2.42 0 0 0-2.45 2.45Z" fill-rule="evenodd" data-name="Path 1200"/></g></g></g></svg>