<svg xmlns="http://www.w3.org/2000/svg" width="64" height="64" viewBox="282 5711.95 64 64"><g data-name="Cjdowner-Cryptocurrency-Flat-Ripple-XRP"><path d="M282 5743.9a32 32 0 1 1 0 .1z" fill="#00aae4" fill-rule="evenodd" data-name="Ellipse 27"/><path d="M325.92 5748.41c-1.38-.816-2.934-1.052-4.474-1.108-1.292-.046-3.22-.894-3.22-3.3 0-1.796 1.42-3.24 3.22-3.304 1.54-.054 3.096-.292 4.476-1.108 3.426-2.028 4.94-6.282 3.586-10.092-1.354-3.81-5.182-6.074-9.08-5.37-3.898.704-6.74 4.172-6.74 8.228 0 1.618.564 3.108 1.28 4.488.604 1.162.908 3.32-1.16 4.542-1.54.91-3.46.334-4.42-1.238-.808-1.328-1.786-2.572-3.156-3.382-3.426-2.028-7.78-1.24-10.324 1.864a8.51 8.51 0 0 0 0 10.74c2.544 3.106 6.898 3.892 10.324 1.864 1.37-.808 2.348-2.052 3.158-3.38.664-1.09 2.324-2.48 4.418-1.24 1.536.91 2.012 2.9 1.16 4.542-.718 1.38-1.28 2.87-1.28 4.49 0 4.054 2.842 7.522 6.74 8.226 3.898.704 7.726-1.56 9.08-5.37 1.352-3.81-.16-8.064-3.586-10.092Z" fill="#fff" fill-rule="evenodd" data-name="Path 1127"/></g></svg>