<svg xmlns="http://www.w3.org/2000/svg" width="186" height="186" viewBox="1232 1641 186 186"><g data-name="Group 117"><path d="M1243 1641h164a11 11 0 0 1 11 11v164a11 11 0 0 1-11 11h-164a11 11 0 0 1-11-11v-164a11 11 0 0 1 11-11z" fill="#6837ef" fill-rule="evenodd" data-name="Rectangle 418"/><g data-name="u"><g data-name="Group 114"><path d="M1351.084 1696h-52.635c-9.08 0-16.449 7.369-16.449 16.449v30.703c0 9.08 7.369 16.449 16.449 16.449h14.386v.395c-.57 2.631-1.71 4.693-2.763 6.184h-2.763c-1.799 0-3.29 1.492-3.29 3.29s1.491 3.29 3.29 3.29h35.09c1.798 0 3.29-1.492 3.29-3.29s-1.492-3.29-3.29-3.29h-2.763c-1.053-1.491-2.194-3.553-2.808-6.184v-.395h14.387c9.08 0 16.449-7.369 16.449-16.449v-30.703c0-9.08-7.37-16.449-16.449-16.449h-.131Zm-20.747 65.4c.35 1.622.92 3.245 1.623 4.78h-14.343c.701-1.535 1.272-3.114 1.622-4.78.132-.615.264-1.185.307-1.8h10.484c.087.615.175 1.23.307 1.8Zm30.616-18.248c0 5.44-4.43 9.87-9.87 9.87h-52.634c-5.44 0-9.87-4.43-9.87-9.87v-30.703c0-5.44 4.43-9.87 9.87-9.87h52.635c5.439 0 9.869 4.43 9.869 9.87v30.703Z" fill="#fff" fill-rule="evenodd" data-name="Path 1143"/><path d="M1337.925 1739.863h-26.318c-1.798 0-3.29 1.491-3.29 3.29 0 1.798 1.492 3.29 3.29 3.29h26.318c1.798 0 3.29-1.492 3.29-3.29 0-1.799-1.492-3.29-3.29-3.29Z" fill="#fff" fill-rule="evenodd" data-name="Path 1144"/></g></g></g></svg>