<svg xmlns="http://www.w3.org/2000/svg" width="694.443" height="799.9" viewBox="987 1260 694.443 799.9">
  <g data-name="Group 52">
    <path d="M1205.453 1641.575h-65.96l-76.041-57.666H987v53.893h58.281l76.109 57.666h84.063v-53.893Z" fill="#ffffff"
      fill-rule="evenodd" data-name="Path 11" />
    <path d="m1106.237 1548.802 2.4 1.44 51.561 29.893v-154.754L987 1312.247v64.453l119.237 77.891v94.211Z"
      fill="#ffffff" fill-rule="evenodd" data-name="Path 12" />
    <path d="M1063.247 1909.532 987 1959.586v64.452l130.071-85.296.343-159.006-53.688 30.579-.48 99.217Z" fill="#ffffff"
      fill-rule="evenodd" data-name="Path 13" />
    <path d="m1604.715 1810.316-53.687-30.512.342 158.937 130.071 85.296v-64.451l-76.246-50.054-.48-99.216Z"
      fill="#ffffff" fill-rule="evenodd" data-name="Path 14" />
    <path
      d="m1425.55 1628.273 42.58-24.615v-154.55l-21.188-12.274 56.225-54.853v-121.98h-53.893v99.217l-50.877 49.64-64.177-37.026-64.179 37.027-50.877-49.641V1260h-53.892v121.982l56.225 54.852-21.187 12.274v154.55l42.579 24.615v80.085l-86.12 48.82v202.066l177.45 100.656 177.451-100.656V1757.18l-86.119-48.82v-80.086Zm-91.33-194.25 79.742 46.213v90.577l-84.747-64.933-75.424 64.933v-90.577l80.428-46.213Zm0 308.07-37.37-32.295v-104.29l37.37-32.225 37.369 32.294v104.221l-37.37 32.295Zm0 255.822-123.42-70.074v-139.19l44.5-25.303 12.82-7.266 64.453 55.675h3.566l64.109-55.812 13.235 7.473 44.088 25.094v139.191l-123.352 70.212Z"
      fill="#ffffff" fill-rule="evenodd" data-name="Path 15" />
    <path d="M1508.244 1425.381v154.754l53.961-31.333v-94.21l119.238-77.892v-64.453l-173.2 113.134Z" fill="#ffffff"
      fill-rule="evenodd" data-name="Path 16" />
    <path d="M1681.443 1637.802v-53.893h-76.451l-76.04 57.666h-66.031v53.893h84.131l76.04-57.666h58.351Z" fill="#ffffff"
      fill-rule="evenodd" data-name="Path 17" />
  </g>
</svg>