<svg xmlns="http://www.w3.org/2000/svg" width="69.576" height="75.205" viewBox="308 4070 69.576 75.205"><g data-name="blockchain"><path d="M374.677 4124.278a34.12 34.12 0 0 0 2.899-13.828c.005-15.567-10.331-29.242-25.308-33.484a2.667 2.667 0 0 0-.957 0 8.697 8.697 0 0 0-17.046 0 2.667 2.667 0 0 0-.957 0c-14.977 4.242-25.313 17.917-25.308 33.484a34.121 34.121 0 0 0 2.9 13.828 8.697 8.697 0 0 0-2.9 6.465 8.697 8.697 0 0 0 13.539 7.218c12.52 9.66 29.979 9.66 42.499 0a8.697 8.697 0 0 0 10.639-13.683Zm-31.889-48.616a2.899 2.899 0 1 1 0 5.798 2.899 2.899 0 0 1 0-5.798Zm-26.09 57.98a2.899 2.899 0 1 1 0-5.798 2.899 2.899 0 0 1 0 5.798Zm8.261-.348a8.262 8.262 0 0 0 .435-2.551 8.697 8.697 0 0 0-8.697-8.697h-.406a28.381 28.381 0 0 1-2.493-11.596 28.99 28.99 0 0 1 21.075-27.888h.175a8.697 8.697 0 0 0 15.48 0h.174a28.99 28.99 0 0 1 21.076 27.888 28.497 28.497 0 0 1-2.493 11.596h-.406a8.697 8.697 0 0 0-8.697 8.697c.01.868.157 1.728.435 2.55-10.48 8.175-25.177 8.175-35.658 0Zm43.92.348a2.899 2.899 0 1 1 0-5.798 2.899 2.899 0 0 1 0 5.798Z" fill="#fff" fill-rule="evenodd" data-name="Path 1201"/><path d="M348.093 4098.854a6.233 6.233 0 0 0-10.61 0l-8.436 13.625a6.233 6.233 0 0 0 5.276 9.567h16.93a6.233 6.233 0 0 0 5.276-9.567l-8.436-13.625Zm3.537 17.046a.406.406 0 0 1-.377.232h-16.93a.406.406 0 0 1-.377-.232.406.406 0 0 1 0-.464l8.465-13.51a.435.435 0 0 1 .754 0l8.465 13.51a.406.406 0 0 1 0 .58v-.116Z" fill="#fff" fill-rule="evenodd" data-name="Path 1202"/></g></svg>