<svg xmlns="http://www.w3.org/2000/svg" width="61.144" height="85.602" viewBox="1093.5 4117 61.144 85.602"><g data-name="lock"><path d="M1148.53 4141.458h-3.057v-3.057c0-11.82-9.582-21.401-21.4-21.401-11.82 0-21.401 9.581-21.401 21.4v3.058h-3.058a6.114 6.114 0 0 0-6.114 6.114v48.916a6.114 6.114 0 0 0 6.114 6.114h48.916a6.114 6.114 0 0 0 6.114-6.114v-48.916a6.114 6.114 0 0 0-6.114-6.114Zm-39.744-3.057c0-8.443 6.844-15.287 15.286-15.287s15.286 6.844 15.286 15.287v3.057h-30.572v-3.057Zm39.744 58.087h-48.916v-48.916h48.916v48.916Z" fill="#fff" fill-rule="evenodd" data-name="Path 1207"/><path d="M1126.518 4157.967a3.057 3.057 0 0 0-4.892 0l-9.171 12.229a3.057 3.057 0 0 0 0 3.668l9.171 12.23a3.057 3.057 0 0 0 4.892 0l9.172-12.23a3.057 3.057 0 0 0 0-3.668l-9.172-12.23Zm-2.446 21.186-5.35-7.123 5.35-7.123 5.35 7.123-5.35 7.123Z" fill="#fff" fill-rule="evenodd" data-name="Path 1208"/></g></svg>