<svg xmlns="http://www.w3.org/2000/svg" width="92.329" height="85.262" viewBox="1040.408 4130.869 92.329 85.262">
  <g data-name="exchange 2">
    <path
      d="M1104.328 4191.252c14.83-.012 27.156-11.43 28.3-26.217 1.144-14.786-9.278-27.965-23.93-30.259-14.652-2.293-28.603 7.07-32.033 21.498a3.02 3.02 0 0 0 0 .568 28.409 28.409 0 1 0 19.957 33.31 28.054 28.054 0 0 0 7.706 1.1Zm-20.738-33.31a21.307 21.307 0 1 1 13.6 24.859 28.409 28.409 0 0 0-14.453-23.509c.37-.383.65-.844.817-1.35Zm-14.773 47.515c-11.767 0-21.307-9.54-21.307-21.307s9.54-21.307 21.307-21.307 21.307 9.54 21.307 21.307-9.54 21.307-21.307 21.307Z"
      fill="#fff" fill-rule="evenodd" data-name="Path 1203" />
    <path
      d="M1043.96 4159.292a3.551 3.551 0 0 0 3.55-3.55v-7.778a2.876 2.876 0 0 1 2.877-2.876h9.872l-1.065 1.03a3.551 3.551 0 0 0 0 5.042 3.551 3.551 0 0 0 5.042 0l7.102-7.102a3.551 3.551 0 0 0 0-5.042l-7.102-7.103a3.566 3.566 0 0 0-5.042 5.043l1.065 1.03h-9.872c-5.511 0-9.979 4.467-9.979 9.978v7.777a3.551 3.551 0 0 0 3.551 3.551Z"
      fill="#fff" fill-rule="evenodd" data-name="Path 1204" />
    <path
      d="M1129.186 4187.701a3.551 3.551 0 0 0-3.551 3.551v7.777a2.876 2.876 0 0 1-2.877 2.877h-9.872l1.066-1.03a3.566 3.566 0 0 0-5.043-5.043l-7.102 7.102a3.551 3.551 0 0 0 0 5.043l7.102 7.102a3.551 3.551 0 0 0 5.043 0 3.551 3.551 0 0 0 0-5.042l-1.066-1.03h9.872c5.511 0 9.979-4.468 9.979-9.979v-7.777a3.551 3.551 0 0 0-3.551-3.55Z"
      fill="#fff" fill-rule="evenodd" data-name="Path 1205" />
    <path
      d="M1070.593 4169.946h-8.878a3.551 3.551 0 1 0 0 7.102v14.204a3.551 3.551 0 0 0 0 7.103h8.878a8.878 8.878 0 0 0 7.102-14.205 8.878 8.878 0 0 0-7.102-14.204Zm0 21.306h-1.776v-3.55h1.776a1.776 1.776 0 1 1 0 3.55Zm0-10.653h-1.776v-3.551h1.776a1.776 1.776 0 0 1 0 3.551Z"
      fill="#fff" fill-rule="evenodd" data-name="Path 1206" />
  </g>
</svg>