<svg width="35" height="32" viewBox="0 0 35 32" fill="none" xmlns="http://www.w3.org/2000/svg">
<path fill-rule="evenodd" clip-rule="evenodd" d="M32.3701 0.5L19.6571 9.94214L22.0071 4.37207L32.3701 0.5Z" fill="#E2761B"/>
<path d="M32.3701 0.5L19.6571 9.94214L22.0071 4.37207L32.3701 0.5Z" stroke="#E2761B" stroke-linecap="round" stroke-linejoin="round"/>
<path fill-rule="evenodd" clip-rule="evenodd" d="M3.02112 0.5L15.6321 10.031L13.3961 4.37109L3.02112 0.5Z" fill="#E4761B"/>
<path d="M3.02112 0.5L15.6321 10.031L13.3961 4.37109L3.02112 0.5Z" stroke="#E4761B" stroke-linecap="round" stroke-linejoin="round"/>
<path fill-rule="evenodd" clip-rule="evenodd" d="M27.7961 22.387L24.4101 27.574L31.6541 29.5671L33.7372 22.5022L27.7961 22.387Z" fill="#E4761B"/>
<path d="M27.7961 22.387L24.4101 27.574L31.6541 29.5671L33.7372 22.5022L27.7961 22.387V22.387Z" stroke="#E4761B" stroke-linecap="round" stroke-linejoin="round"/>
<path fill-rule="evenodd" clip-rule="evenodd" d="M1.68015 22.5022L3.75014 29.5671L10.9941 27.574L7.60814 22.387L1.68015 22.5022Z" fill="#E4761B"/>
<path d="M1.68015 22.5022L3.75014 29.5671L10.9941 27.574L7.60814 22.387L1.68015 22.5022Z" stroke="#E4761B" stroke-linecap="round" stroke-linejoin="round"/>
<path fill-rule="evenodd" clip-rule="evenodd" d="M10.5851 13.6221L8.56714 16.675L15.7601 16.9951L15.5042 9.26514L10.5851 13.6221Z" fill="#E4761B"/>
<path d="M10.5851 13.6221L8.56714 16.675L15.7601 16.9951L15.5042 9.26514L10.5851 13.6221Z" stroke="#E4761B" stroke-linecap="round" stroke-linejoin="round"/>
<path fill-rule="evenodd" clip-rule="evenodd" d="M24.8062 13.6221L19.8232 9.17505L19.6571 16.9951L26.8371 16.675L24.8062 13.6221Z" fill="#E4761B"/>
<path d="M24.8062 13.6221L19.8232 9.17505L19.6571 16.9951L26.8371 16.675L24.8062 13.6221Z" stroke="#E4761B" stroke-linecap="round" stroke-linejoin="round"/>
<path fill-rule="evenodd" clip-rule="evenodd" d="M10.9941 27.5752L15.3131 25.4651L11.5821 22.553L10.9941 27.574V27.5752Z" fill="#E4761B"/>
<path d="M10.9941 27.5752L15.3131 25.4651L11.5821 22.553L10.9941 27.574V27.5752Z" stroke="#E4761B" stroke-linecap="round" stroke-linejoin="round"/>
<path fill-rule="evenodd" clip-rule="evenodd" d="M20.0791 25.4651L24.4091 27.5752L23.8091 22.553L20.0791 25.4661V25.4651Z" fill="#E4761B"/>
<path d="M20.0791 25.4651L24.4091 27.5752L23.8091 22.553L20.0791 25.4661V25.4651Z" stroke="#E4761B" stroke-linecap="round" stroke-linejoin="round"/>
<path fill-rule="evenodd" clip-rule="evenodd" d="M24.4101 27.5752L20.0791 25.4651L20.4241 28.29L20.3851 29.478L24.4101 27.574V27.5752Z" fill="#D7C1B3"/>
<path d="M24.4101 27.5752L20.0791 25.4651L20.4241 28.29L20.3851 29.478L24.4101 27.574V27.5752Z" stroke="#D7C1B3" stroke-linecap="round" stroke-linejoin="round"/>
<path fill-rule="evenodd" clip-rule="evenodd" d="M10.9941 27.5752L15.0191 29.478L14.9931 28.29L15.3131 25.4661L10.9941 27.574V27.5752Z" fill="#D7C1B3"/>
<path d="M10.9941 27.5752L15.0191 29.478L14.9931 28.29L15.3131 25.4661L10.9941 27.574V27.5752Z" stroke="#D7C1B3" stroke-linecap="round" stroke-linejoin="round"/>
<path fill-rule="evenodd" clip-rule="evenodd" d="M15.0831 20.687L11.4801 19.6272L14.0221 18.4641L15.0821 20.687H15.0831Z" fill="#233447"/>
<path d="M15.0831 20.687L11.4801 19.6272L14.0221 18.4641L15.0821 20.687H15.0831Z" stroke="#233447" stroke-linecap="round" stroke-linejoin="round"/>
<path fill-rule="evenodd" clip-rule="evenodd" d="M20.3091 20.687L21.3691 18.4641L23.9241 19.6272L20.3091 20.687Z" fill="#233447"/>
<path d="M20.3091 20.687L21.3691 18.4641L23.9241 19.6272L20.3091 20.687Z" stroke="#233447" stroke-linecap="round" stroke-linejoin="round"/>
<path fill-rule="evenodd" clip-rule="evenodd" d="M10.9942 27.574L11.6082 22.387L7.60815 22.5022L10.9942 27.574Z" fill="#CD6116"/>
<path d="M10.9942 27.574L11.6082 22.387L7.60815 22.5022L10.9942 27.574Z" stroke="#CD6116" stroke-linecap="round" stroke-linejoin="round"/>
<path fill-rule="evenodd" clip-rule="evenodd" d="M23.7971 22.387L24.4101 27.574L27.7961 22.5022L23.7961 22.387H23.7971Z" fill="#CD6116"/>
<path d="M23.7971 22.387L24.4101 27.574L27.7961 22.5022L23.7961 22.387H23.7971Z" stroke="#CD6116" stroke-linecap="round" stroke-linejoin="round"/>
<path fill-rule="evenodd" clip-rule="evenodd" d="M26.8382 16.675L19.6572 16.9951L20.3212 20.687L21.3812 18.4641L23.9372 19.6272L26.8372 16.675H26.8382Z" fill="#CD6116"/>
<path d="M26.8382 16.675L19.6572 16.9951L20.3212 20.687L21.3812 18.4641L23.9372 19.6272L26.8372 16.675H26.8382Z" stroke="#CD6116" stroke-linecap="round" stroke-linejoin="round"/>
<path fill-rule="evenodd" clip-rule="evenodd" d="M11.4801 19.6272L14.0351 18.4641L15.0831 20.687L15.7601 16.9951L8.56714 16.675L11.4801 19.6272Z" fill="#CD6116"/>
<path d="M11.4801 19.6272L14.0351 18.4641L15.0831 20.687L15.7601 16.9951L8.56714 16.675L11.4801 19.6272V19.6272Z" stroke="#CD6116" stroke-linecap="round" stroke-linejoin="round"/>
<path fill-rule="evenodd" clip-rule="evenodd" d="M8.56714 16.675L11.5821 22.553L11.4801 19.6272L8.56714 16.675Z" fill="#E4751F"/>
<path d="M8.56714 16.675L11.5821 22.553L11.4801 19.6272L8.56714 16.675V16.675Z" stroke="#E4751F" stroke-linecap="round" stroke-linejoin="round"/>
<path fill-rule="evenodd" clip-rule="evenodd" d="M23.9371 19.6272L23.8091 22.553L26.8381 16.675L23.9381 19.6272H23.9371Z" fill="#E4751F"/>
<path d="M23.9371 19.6272L23.8091 22.553L26.8381 16.675L23.9381 19.6272H23.9371Z" stroke="#E4751F" stroke-linecap="round" stroke-linejoin="round"/>
<path fill-rule="evenodd" clip-rule="evenodd" d="M15.7601 16.9951L15.0831 20.687L15.9261 25.0442L16.1181 19.3071L15.7601 16.9951Z" fill="#E4751F"/>
<path d="M15.7601 16.9951L15.0831 20.687L15.9261 25.0442L16.1181 19.3071L15.7601 16.9951Z" stroke="#E4751F" stroke-linecap="round" stroke-linejoin="round"/>
<path fill-rule="evenodd" clip-rule="evenodd" d="M19.6571 16.9951L19.3121 19.2952L19.4651 25.0452L20.3211 20.687L19.6571 16.9951Z" fill="#E4751F"/>
<path d="M19.6571 16.9951L19.3121 19.2952L19.4651 25.0452L20.3211 20.687L19.6571 16.9951Z" stroke="#E4751F" stroke-linecap="round" stroke-linejoin="round"/>
<path fill-rule="evenodd" clip-rule="evenodd" d="M20.3211 20.687L19.4651 25.0442L20.0791 25.4661L23.8091 22.553L23.9371 19.6272L20.3211 20.687Z" fill="#F6851B"/>
<path d="M20.3211 20.687L19.4651 25.0442L20.0791 25.4661L23.8091 22.553L23.9371 19.6272L20.3211 20.687Z" stroke="#F6851B" stroke-linecap="round" stroke-linejoin="round"/>
<path fill-rule="evenodd" clip-rule="evenodd" d="M11.4801 19.6272L11.5821 22.553L15.3121 25.4661L15.9261 25.0442L15.0831 20.687L11.4801 19.6272Z" fill="#F6851B"/>
<path d="M11.4801 19.6272L11.5821 22.553L15.3121 25.4661L15.9261 25.0442L15.0831 20.687L11.4801 19.6272V19.6272Z" stroke="#F6851B" stroke-linecap="round" stroke-linejoin="round"/>
<path fill-rule="evenodd" clip-rule="evenodd" d="M20.3851 29.478L20.4241 28.29L20.1041 28.0081H15.2871L14.9931 28.29L15.0191 29.478L10.9941 27.574L12.4001 28.7241L15.2491 30.7041H20.1422L23.0042 28.7241L24.4101 27.574L20.3851 29.478Z" fill="#C0AD9E"/>
<path d="M20.3851 29.478L20.4241 28.29L20.1041 28.0081H15.2871L14.9931 28.29L15.0191 29.478L10.9941 27.574L12.4001 28.7241L15.2491 30.7041H20.1422L23.0042 28.7241L24.4101 27.574L20.3851 29.478Z" stroke="#C0AD9E" stroke-linecap="round" stroke-linejoin="round"/>
<path fill-rule="evenodd" clip-rule="evenodd" d="M20.0791 25.4651L19.4651 25.0452H15.9261L15.3131 25.4651L14.9931 28.29L15.2871 28.0081H20.1041L20.4241 28.29L20.0791 25.4661V25.4651Z" fill="#161616"/>
<path d="M20.0791 25.4651L19.4651 25.0452H15.9261L15.3131 25.4651L14.9931 28.29L15.2871 28.0081H20.1041L20.4241 28.29L20.0791 25.4661V25.4651Z" stroke="#161616" stroke-linecap="round" stroke-linejoin="round"/>
<path fill-rule="evenodd" clip-rule="evenodd" d="M32.9071 10.5552L33.9931 5.34204L32.3701 0.5L20.0791 9.62305L24.8062 13.6221L31.4881 15.5771L32.9701 13.8521L32.3321 13.3921L33.3541 12.459L32.5621 11.8462L33.5841 11.0662L32.9071 10.5562V10.5552Z" fill="#763D16"/>
<path d="M32.9071 10.5552L33.9931 5.34204L32.3701 0.5L20.0791 9.62305L24.8062 13.6221L31.4881 15.5771L32.9701 13.8521L32.3321 13.3921L33.3541 12.459L32.5621 11.8462L33.5841 11.0662L32.9071 10.5562V10.5552Z" stroke="#763D16" stroke-linecap="round" stroke-linejoin="round"/>
<path fill-rule="evenodd" clip-rule="evenodd" d="M1.41214 5.34204L2.49814 10.5552L1.80814 11.0662L2.83014 11.8462L2.05014 12.459L3.07314 13.3921L2.43314 13.8521L3.90314 15.5771L10.5851 13.6221L15.3131 9.62207L3.02113 0.5L1.41113 5.34204H1.41214Z" fill="#763D16"/>
<path d="M1.41214 5.34204L2.49814 10.5552L1.80814 11.0662L2.83014 11.8462L2.05014 12.459L3.07314 13.3921L2.43314 13.8521L3.90314 15.5771L10.5851 13.6221L15.3131 9.62207L3.02113 0.5L1.41113 5.34204H1.41214Z" stroke="#763D16" stroke-linecap="round" stroke-linejoin="round"/>
<path fill-rule="evenodd" clip-rule="evenodd" d="M31.4881 15.5771L24.8062 13.6221L26.8381 16.675L23.8091 22.553L27.7961 22.5022H33.7372L31.4881 15.5771Z" fill="#F6851B"/>
<path d="M31.4881 15.5771L24.8062 13.6221L26.8381 16.675L23.8091 22.553L27.7961 22.5022H33.7372L31.4881 15.5771V15.5771Z" stroke="#F6851B" stroke-linecap="round" stroke-linejoin="round"/>
<path fill-rule="evenodd" clip-rule="evenodd" d="M10.5851 13.6221L3.90314 15.5771L1.68015 22.5022H7.60814L11.5821 22.552L8.56714 16.675L10.5851 13.6221Z" fill="#F6851B"/>
<path d="M10.5851 13.6221L3.90314 15.5771L1.68015 22.5022H7.60814L11.5821 22.552L8.56714 16.675L10.5851 13.6221V13.6221Z" stroke="#F6851B" stroke-linecap="round" stroke-linejoin="round"/>
<path fill-rule="evenodd" clip-rule="evenodd" d="M19.6571 16.9951L20.0791 9.62305L22.0211 4.37109H13.3961L15.3131 9.62305L15.7601 16.9951L15.9131 19.3201L15.9261 25.0442H19.4661L19.4911 19.3201L19.6571 16.9951Z" fill="#F6851B"/>
<path d="M19.6571 16.9951L20.0791 9.62305L22.0211 4.37109H13.3961L15.3131 9.62305L15.7601 16.9951L15.9131 19.3201L15.9261 25.0442H19.4661L19.4911 19.3201L19.6571 16.9951Z" stroke="#F6851B" stroke-linecap="round" stroke-linejoin="round"/>
</svg>
