<svg xmlns="http://www.w3.org/2000/svg" width="186" height="186" viewBox="989 1641 186 186"><g data-name="Group 118"><path d="M1000 1641h164a11 11 0 0 1 11 11v164a11 11 0 0 1-11 11h-164a11 11 0 0 1-11-11v-164a11 11 0 0 1 11-11z" fill="#6837ef" fill-rule="evenodd" data-name="Rectangle 417"/><g data-name="h"><path d="m1124.27 1709.619-16.852-16.853c-3.688-3.688-9.71-3.688-13.352 0a9.163 9.163 0 0 0-2.1 3.221c-3.175-.84-6.676-.047-9.15 2.38a9.393 9.393 0 0 0-2.755 6.677c0 2.52.98 4.901 2.755 6.675l4.528 4.529-23.108 23.108-4.528-4.529c-3.595-3.594-9.804-3.548-13.352 0a9.393 9.393 0 0 0-2.754 6.676c0 .84.14 1.634.373 2.428-1.167.466-2.24 1.167-3.22 2.1a9.393 9.393 0 0 0-2.755 6.676c0 2.52.98 4.902 2.754 6.676l16.853 16.852a9.393 9.393 0 0 0 6.676 2.755c2.52 0 4.901-.98 6.675-2.755a9.603 9.603 0 0 0 2.101-3.22 8.5 8.5 0 0 0 2.428.373c2.52 0 4.901-.98 6.675-2.755a9.393 9.393 0 0 0 2.755-6.675c0-2.521-.98-4.902-2.755-6.676l-4.528-4.528 23.108-23.108 4.528 4.528a9.393 9.393 0 0 0 6.676 2.754c2.521 0 4.902-.98 6.676-2.754a9.393 9.393 0 0 0 2.754-6.676 8.5 8.5 0 0 0-.373-2.427c1.167-.467 2.24-1.167 3.22-2.101 3.689-3.688 3.689-9.71 0-13.398Zm-25.255-11.905a2.397 2.397 0 0 1 1.727-.7c.654 0 1.26.234 1.727.7l16.853 16.853c.98.98.98 2.52 0 3.455-.98.933-2.52.933-3.455 0l-16.852-16.853a2.397 2.397 0 0 1-.7-1.727c0-.654.233-1.26.7-1.728Zm-33.052 73.666c-.933.934-2.52.934-3.454 0l-16.853-16.852a2.397 2.397 0 0 1-.7-1.728c0-.653.233-1.26.7-1.727a2.397 2.397 0 0 1 1.727-.7c.654 0 1.26.233 1.728.7l16.852 16.853c.98.98.98 2.52 0 3.454Zm11.25-5.602c-.933.934-2.567.934-3.454 0l-22.454-22.454a2.397 2.397 0 0 1-.7-1.728c0-.653.233-1.26.7-1.727.467-.467 1.12-.7 1.727-.7s1.26.233 1.727.7l7.003 7.003 8.403 8.403 7.002 7.002c.98.98.98 2.52 0 3.455Zm18.58-41.034-23.107 23.108-3.455-3.455 23.108-23.108 1.727 1.728 1.728 1.727Zm17.927 4.528c-.934.934-2.52.934-3.455 0l-22.454-22.454c-.98-.98-.98-2.521 0-3.455.467-.467 1.12-.7 1.727-.7s1.26.233 1.727.7l2.801 2.801 16.853 16.853 2.801 2.8c.98.98.98 2.521 0 3.455Z" fill="#fff" fill-rule="evenodd" data-name="Path 1151"/></g></g></svg>