<svg xmlns="http://www.w3.org/2000/svg" width="186" height="186" viewBox="746 1641 186 186"><g data-name="Group 119"><path d="M757 1641h164a11 11 0 0 1 11 11v164a11 11 0 0 1-11 11H757a11 11 0 0 1-11-11v-164a11 11 0 0 1 11-11z" fill="#6837ef" fill-rule="evenodd" data-name="Rectangle 416"/><g data-name="pan open"><path d="M880.045 1727.803h-6.3a3.15 3.15 0 0 0-3.15-3.15H807.6a3.15 3.15 0 0 0-3.15 3.15h-6.3a3.15 3.15 0 0 0 0 6.3h6.3v37.797a6.3 6.3 0 0 0 6.3 6.3h56.697a6.3 6.3 0 0 0 6.3-6.3v-37.798h6.3a3.15 3.15 0 1 0 0-6.3Zm-69.296 3.15h56.697v31.498h-56.697v-31.499Zm0 40.947v-3.15h56.697v3.15h-56.697Z" fill="#fff" fill-rule="evenodd" data-name="Path 1154"/><path d="M805.08 1722.889a3.433 3.433 0 0 0 1.228-.252l61.453-26.585a3.154 3.154 0 1 0-2.488-5.795l-21.01 9.197-1.7-4.032a3.15 3.15 0 0 0-4.158-1.638l-13.64 5.89a3.15 3.15 0 0 0-1.637 4.158l1.7 3.938-21.008 9.071a3.15 3.15 0 0 0 1.26 6.048Zm25.513-17.64-.441-1.039 7.875-3.401.44 1.039-3.937 1.7-3.937 1.702Z" fill="#fff" fill-rule="evenodd" data-name="Path 1155"/></g></g></svg>