<svg xmlns="http://www.w3.org/2000/svg" width="186" height="186" viewBox="1475 1641 186 186"><g data-name="Group 116"><path d="M1486 1641h164a11 11 0 0 1 11 11v164a11 11 0 0 1-11 11h-164a11 11 0 0 1-11-11v-164a11 11 0 0 1 11-11z" fill="#6837ef" fill-rule="evenodd" data-name="Rectangle 419"/><g data-name="t"><path d="M1599.68 1701.351c-8.589-8.59-20.026-13.351-32.164-13.351-12.138 0-23.575 4.715-32.165 13.351-8.59 8.59-13.351 20.027-13.351 32.165 0 12.138 4.715 23.575 13.351 32.165 8.59 8.59 20.027 13.351 32.165 13.351 12.138 0 23.575-4.715 32.165-13.351 8.59-8.59 13.351-20.027 13.351-32.165 0-12.138-4.715-23.575-13.351-32.165Zm-2.614 56.814-24.648-24.649 8.356-8.356c4.995 4.295 13.351 9.803 25.022 11.67a37.901 37.901 0 0 1-8.776 21.335Zm-67.877-20.868c4.995.934 12.745 3.408 20.027 9.57l-11.297 11.298a38.252 38.252 0 0 1-8.73-20.868Zm8.73-28.43 24.649 24.649-8.403 8.403c-9.244-8.03-19.187-10.784-25.022-11.718.653-7.889 3.687-15.265 8.776-21.287Zm42.902 6.35c-6.162-7.283-8.637-15.033-9.57-20.028a38.252 38.252 0 0 1 20.867 8.73l-11.297 11.297Zm-4.949 4.948-8.403 8.403-24.602-24.65a38.562 38.562 0 0 1 21.288-8.775c.934 5.788 3.688 15.778 11.717 25.022Zm-21.707 31.604c3.5 4.155 7.796 10.877 9.523 20.074-7.703-.747-14.892-3.782-20.82-8.73l11.297-11.297Zm4.948-4.948 8.356-8.357 24.649 24.649c-6.069 5.088-13.445 8.076-21.334 8.776-1.867-11.67-7.376-20.073-11.67-25.022Zm26.656-26.656 11.297-11.298c4.949 5.93 7.983 13.118 8.73 20.821-9.196-1.727-15.919-5.975-20.074-9.523Z" fill="#fff" fill-rule="evenodd" data-name="Path 1152"/></g></g></svg>