<svg xmlns="http://www.w3.org/2000/svg" width="186" height="186" viewBox="260 1641 186 186"><g data-name="Group 121"><path d="M271 1641h164a11 11 0 0 1 11 11v164a11 11 0 0 1-11 11H271a11 11 0 0 1-11-11v-164a11 11 0 0 1 11-11z" fill="#6837ef" fill-rule="evenodd" data-name="Rectangle 414"/><g data-name="bulb"><path d="M385.745 1722.691c.021-15.781-11.218-29.333-26.73-32.23-15.514-2.899-30.887 5.681-36.564 20.406-5.678 14.725-.044 31.405 13.4 39.671v11.133a3.118 3.118 0 0 0 3.118 3.118h.156c.352 7.451 6.495 13.31 13.955 13.31 7.459 0 13.602-5.859 13.954-13.31a3.118 3.118 0 0 0 3.119-3.118v-11.133a32.774 32.774 0 0 0 15.592-27.847Zm-32.743 48.335a7.796 7.796 0 0 1-7.64-6.238l15.436.001a7.796 7.796 0 0 1-7.796 6.237Zm10.914-12.474h-21.829v-5.02a32.275 32.275 0 0 0 21.829 0v5.02Zm-18.71-37.42h-1.56a1.56 1.56 0 1 1 1.56-1.56v1.56Zm9.355 28.065H351.442v-21.828h3.119v21.828Zm6.237-1.091v-20.737h1.559a7.796 7.796 0 1 0-7.796-7.796v1.559h-3.119v-1.56a7.796 7.796 0 1 0-7.796 7.797h1.56v20.643c-12.537-3.858-20.367-16.305-18.416-29.275 1.95-12.971 13.095-22.565 26.212-22.565 13.116 0 24.26 9.594 26.211 22.565 1.95 12.97-5.879 25.417-18.415 29.275v.094Zm0-26.974v-1.56a1.56 1.56 0 1 1 1.559 1.56h-1.56Z" fill="#fff" fill-rule="evenodd" data-name="Path 1153"/></g></g></svg>