<svg xmlns="http://www.w3.org/2000/svg" width="186" height="186" viewBox="503 1641 186 186"><g data-name="Group 120"><path d="M514 1641h164a11 11 0 0 1 11 11v164a11 11 0 0 1-11 11H514a11 11 0 0 1-11-11v-164a11 11 0 0 1 11-11z" fill="#6837ef" fill-rule="evenodd" data-name="Rectangle 415"/><g data-name="n"><g data-name="Group 115"><path d="M630.157 1724.14h-7.11v-7.112c0-2.332-1.935-4.266-4.267-4.266-2.332 0-4.267 1.934-4.267 4.266v7.111h-7.11c-2.333 0-4.267 1.935-4.267 4.267 0 2.332 1.934 4.266 4.266 4.266h7.111v7.111c0 2.333 1.935 4.267 4.267 4.267 2.332 0 4.266-1.934 4.266-4.267v-7.11h7.111c2.333 0 4.267-1.935 4.267-4.267 0-2.332-1.934-4.267-4.267-4.267Z" fill="#fff" fill-rule="evenodd" data-name="Path 1145"/><path d="M584.761 1724.14h-.057c-2.332 0-4.21 1.934-4.21 4.266s1.935 4.266 4.267 4.266c2.333 0 4.267-1.934 4.267-4.266s-1.934-4.267-4.267-4.267Z" fill="#fff" fill-rule="evenodd" data-name="Path 1146"/><path d="M561.892 1724.14h-.056c-2.333 0-4.21 1.934-4.21 4.266s1.934 4.266 4.266 4.266c2.333 0 4.267-1.934 4.267-4.266s-1.934-4.267-4.267-4.267Z" fill="#fff" fill-rule="evenodd" data-name="Path 1147"/><path d="M572.929 1712.762h-.057c-2.333 0-4.21 1.934-4.21 4.266 0 2.333 1.934 4.267 4.267 4.267 2.332 0 4.266-1.934 4.266-4.267 0-2.332-1.934-4.266-4.266-4.266Z" fill="#fff" fill-rule="evenodd" data-name="Path 1148"/><path d="M572.929 1735.517h-.057c-2.333 0-4.21 1.934-4.21 4.266 0 2.333 1.934 4.267 4.267 4.267 2.332 0 4.266-1.934 4.266-4.267 0-2.332-1.934-4.266-4.266-4.266Z" fill="#fff" fill-rule="evenodd" data-name="Path 1149"/><path d="M641.137 1707.414c-1.991-3.811-4.665-8.078-9.671-10.24-4.779-2.104-9.956-1.592-13.71-1.194-1.877.228-4.267.512-7.339 1.536-1.024.341-2.048.74-2.958 1.138-7.85 3.356-15.018 3.356-22.868 0a35.646 35.646 0 0 0-2.959-1.138c-3.185-1.024-5.575-1.365-7.338-1.536-2.674-.284-8.875-.91-13.938 1.422-4.494 2.048-6.883 5.746-8.76 9.387-6.656 12.913-16.725 32.426-6.997 51.881a40.677 40.677 0 0 0 6.655 9.443 13.398 13.398 0 0 0 9.842 4.267h1.195c.91-.057 2.161-.228 3.754-.853 4.38-1.593 6.884-4.495 9.102-7.054 1.195-1.366 2.333-2.674 3.755-3.869 1.82-1.479 4.039-2.617 6.2-3.356 3.414-.74 6.94-1.195 10.41-1.195 3.755 0 7.51.342 10.866 1.024 2.276.683 4.267 1.707 5.803 3.015 1.08.91 1.991 1.991 3.015 3.186 1.422 1.65 3.015 3.527 5.518 5.575 1.252.967 3.186 2.39 6.144 3.015 1.195.284 2.503.341 3.811.284 2.39-.113 6.087-.91 10.013-4.039 3.583-2.844 5.233-6.428 6.542-9.33l.455-.966c9.216-19.57-.683-38.798-6.6-50.346l.058-.057Zm-1.138 46.705-.455 1.024c-1.081 2.39-2.162 4.665-4.096 6.2-2.162 1.707-3.982 2.162-5.12 2.22-.74 0-1.422-.058-1.536-.114-1.138-.228-1.991-.797-2.617-1.366-1.877-1.479-3.072-2.901-4.323-4.38-1.195-1.365-2.39-2.788-4.04-4.21-2.502-2.105-5.46-3.64-9.215-4.721-4.267-.91-8.647-1.309-13.027-1.309-4.096 0-8.192.512-12.515 1.536-3.584 1.138-6.713 2.788-9.387 4.95-1.99 1.65-3.527 3.356-4.835 4.892-1.934 2.218-3.3 3.754-5.632 4.664-.626.228-1.081.285-1.536.342-1.48.17-3.015-.455-4.096-1.593-2.162-2.276-3.925-4.779-5.234-7.395-7.85-15.53.683-32.085 6.94-44.145 1.423-2.73 2.674-4.608 4.722-5.575 2.958-1.365 7.566-.91 9.557-.683 1.423.114 3.186.398 5.575 1.138.797.284 1.536.569 2.276.853 10.012 4.324 19.626 4.267 29.581 0 .683-.284 1.48-.569 2.276-.853 2.218-.74 3.811-.967 5.575-1.195 3.129-.341 6.599-.682 9.33.512 2.445 1.081 3.925 3.243 5.517 6.372 5.518 10.751 13.881 27.021 6.486 42.78l-.171.056Z" fill="#fff" fill-rule="evenodd" data-name="Path 1150"/></g></g></g></svg>